<?xml version="1.0" standalone="no"?>
<!DOCTYPE svg PUBLIC "-//W3C//DTD SVG 20010904//EN"
 "http://www.w3.org/TR/2001/REC-SVG-20010904/DTD/svg10.dtd">
<svg version="1.0" xmlns="http://www.w3.org/2000/svg"
 viewBox="0 0 387.000000 360.000000"
 preserveAspectRatio="xMidYMid meet">
<metadata>
Created by potrace 1.16, written by Peter Selinger 2001-2019
</metadata>
<g transform="translate(0.000000,360.000000) scale(0.100000,-0.100000)"
fill="var(--color-background)" stroke="none">
<path d="M1878 3538 c-22 -24 -59 -70 -80 -102 -111 -171 -88 -374 60 -538
l37 -41 3 -333 c2 -184 0 -334 -5 -334 -4 0 -60 53 -125 117 l-117 116 6 48
c5 44 3 51 -25 78 -26 26 -38 31 -79 31 -48 0 -50 1 -135 88 l-86 87 -4 85
c-6 106 -39 183 -110 252 -81 79 -251 147 -367 148 l-43 0 7 -67 c23 -213 111
-365 252 -435 52 -25 80 -32 146 -36 l82 -4 83 -81 c77 -77 82 -84 82 -124 0
-62 39 -103 105 -110 49 -6 53 -9 188 -147 l137 -141 0 -132 0 -133 30 0 c30
0 30 0 30 59 l0 59 180 179 180 178 0 69 0 69 126 128 126 127 67 0 c227 -2
403 195 413 462 l3 85 -50 -3 c-183 -11 -363 -120 -432 -261 -22 -44 -29 -74
-33 -149 l-5 -94 -137 -134 -138 -134 0 -72 1 -73 -143 -137 c-78 -76 -144
-138 -147 -138 -4 0 -6 179 -6 399 l1 398 47 54 c96 109 140 245 117 362 -16
86 -69 191 -130 260 -28 31 -56 57 -61 57 -5 0 -28 -19 -51 -42z"/>
<path d="M325 2577 c-18 -45 64 -216 141 -297 30 -31 78 -68 107 -82 57 -29
158 -51 209 -46 30 3 44 -8 166 -134 73 -75 129 -139 123 -142 -5 -3 -62 -4
-126 -1 l-117 6 -33 34 c-26 29 -40 35 -72 35 -73 0 -123 -83 -89 -148 20 -39
44 -52 93 -52 31 0 46 7 68 30 l29 30 165 0 166 0 205 -215 c113 -118 213
-218 223 -221 10 -3 30 -3 44 1 26 6 24 9 -60 93 l-87 87 0 259 0 259 -130
132 c-122 123 -130 133 -124 162 8 42 -19 91 -62 109 -29 12 -39 12 -68 0 -68
-28 -87 -100 -40 -155 22 -27 33 -31 73 -31 l48 0 121 -124 122 -124 0 -201
c0 -111 -3 -201 -7 -201 -5 0 -132 127 -284 283 l-276 282 -5 56 c-14 131
-117 248 -263 299 -81 29 -252 40 -260 17z"/>
<path d="M3317 2575 c-168 -47 -291 -173 -304 -314 l-5 -56 -282 -282 c-154
-156 -284 -283 -288 -283 -5 0 -8 83 -8 184 l0 184 147 141 c134 129 150 141
184 141 73 0 114 64 85 133 -27 66 -106 79 -158 26 -28 -28 -30 -34 -25 -79
l6 -49 -150 -142 -149 -141 0 -232 0 -232 -95 -94 c-53 -51 -93 -95 -91 -97 3
-3 20 -5 39 -6 33 -1 50 14 224 180 103 100 206 200 228 222 l39 41 168 0
c164 0 168 0 192 -25 76 -75 197 -11 172 91 -18 71 -111 100 -161 49 -14 -13
-25 -29 -25 -35 0 -6 -48 -10 -135 -10 -74 0 -135 3 -135 7 0 3 57 64 128 135
l127 128 66 0 c122 0 241 55 314 145 47 57 106 187 108 238 l2 42 -85 2 c-47
1 -107 -4 -133 -12z"/>
<path d="M3400 1742 c-79 -21 -142 -57 -195 -111 l-39 -41 -212 0 c-117 0
-224 -4 -237 -9 -13 -5 -84 -64 -158 -130 -73 -66 -149 -128 -168 -138 -50
-25 -177 -24 -253 1 -32 10 -75 33 -95 52 -36 30 -37 34 -24 56 48 78 62 149
41 212 -49 151 -228 150 -270 0 -16 -57 -7 -145 19 -190 29 -48 27 -60 -16
-88 -81 -53 -222 -75 -331 -52 -103 21 -194 73 -303 172 -52 47 -108 92 -126
100 -23 10 -76 14 -189 14 l-156 0 -54 49 c-30 27 -80 62 -112 78 -51 25 -67
28 -162 28 -102 0 -109 -1 -180 -37 -46 -23 -94 -57 -125 -88 l-50 -52 48 -43
c179 -164 425 -179 580 -36 l44 41 155 0 c183 0 175 4 328 -144 132 -127 195
-168 382 -245 89 -37 142 -88 155 -148 12 -56 6 -191 -12 -291 -44 -239 -120
-351 -288 -419 -114 -46 -180 -85 -234 -136 -84 -79 -129 -167 -52 -103 51 43
156 92 280 129 148 45 232 81 292 124 27 19 51 32 54 29 3 -3 -2 -27 -12 -52
-12 -32 -47 -78 -111 -145 -52 -54 -94 -105 -94 -114 0 -9 3 -15 8 -13 4 2 52
27 107 55 124 65 201 127 246 198 19 30 36 54 39 54 3 1 18 -24 34 -55 37 -70
104 -126 235 -193 54 -28 102 -51 105 -51 19 0 -5 32 -88 120 -78 81 -98 108
-110 151 -9 29 -14 54 -12 56 2 3 26 -12 54 -31 67 -49 136 -78 298 -126 156
-47 208 -71 283 -130 29 -23 55 -40 58 -37 10 11 -30 69 -84 122 -45 43 -88
71 -208 130 -165 81 -212 119 -258 212 -71 140 -107 403 -72 521 23 75 59 110
197 191 137 80 112 76 293 50 110 -16 115 -17 115 -40 0 -11 13 -34 29 -50 23
-23 38 -29 71 -29 113 0 140 152 34 196 -35 15 -73 7 -105 -22 -14 -12 -32
-11 -142 8 -70 13 -127 26 -127 29 0 8 186 171 212 186 16 9 82 12 226 13
l202 0 53 -43 c75 -61 145 -88 242 -95 131 -8 221 26 346 129 59 50 60 51 42
71 -32 37 -154 117 -207 137 -78 29 -160 34 -236 13z"/>
</g>
</svg>
