<svg width="512" height="448" viewBox="0 0 512 448" fill="none" xmlns="http://www.w3.org/2000/svg">
<g clip-path="url(#clip0_597_1116)">
<path d="M233.4 438.6C245.9 451.1 266.2 451.1 278.7 438.6L438.7 278.6C451.2 266.1 451.2 245.8 438.7 233.3C426.2 220.8 405.9 220.8 393.4 233.3L288 338.8L288 32C288 14.3 273.7 -7.62217e-06 256 -8.39586e-06C238.3 -9.16956e-06 224 14.3 224 32L224 338.7L118.6 233.4C106.1 220.9 85.8002 220.9 73.3002 233.4C60.8002 245.9 60.8002 266.2 73.3002 278.7L233.3 438.7L233.4 438.6Z" fill="white"/>
</g>
<defs>
<clipPath id="clip0_597_1116">
<rect width="448" height="512" fill="white" transform="translate(512) rotate(90)"/>
</clipPath>
</defs>
</svg>
