<svg width="28" height="28" viewBox="0 0 28 28" fill="none" xmlns="http://www.w3.org/2000/svg">
<path fill-rule="evenodd" clip-rule="evenodd" d="M20.9921 8.22383C20.9921 7.58333 20.4741 7.06183 19.8325 7.05833L10.5073 7H10.5003C9.85863 7 9.33829 7.518 9.33363 8.15967C9.32896 8.80367 9.84813 9.32983 10.4933 9.33333L16.9776 9.37417L7.34212 19.0085C6.88596 19.4647 6.88596 20.2032 7.34212 20.6582C7.56962 20.8868 7.86829 21 8.16696 21C8.46562 21 8.76429 20.8868 8.99179 20.6582L18.6611 10.9888L18.667 17.5012C18.667 18.1452 19.1896 18.6667 19.8336 18.6667H19.8348C20.4788 18.6667 21.0003 18.1428 21.0003 17.4988L20.9921 8.22383Z" fill="var(--color-outline)"/>
<mask id="mask0_86_2052" style="mask-type:luminance" maskUnits="userSpaceOnUse" x="7" y="7" width="15" height="14">
<path fill-rule="evenodd" clip-rule="evenodd" d="M20.9921 8.22383C20.9921 7.58333 20.4741 7.06183 19.8325 7.05833L10.5073 7H10.5003C9.85863 7 9.33829 7.518 9.33363 8.15967C9.32896 8.80367 9.84813 9.32983 10.4933 9.33333L16.9776 9.37417L7.34212 19.0085C6.88596 19.4647 6.88596 20.2032 7.34212 20.6582C7.56962 20.8868 7.86829 21 8.16696 21C8.46562 21 8.76429 20.8868 8.99179 20.6582L18.6611 10.9888L18.667 17.5012C18.667 18.1452 19.1896 18.6667 19.8336 18.6667H19.8348C20.4788 18.6667 21.0003 18.1428 21.0003 17.4988L20.9921 8.22383Z" fill="white"/>
</mask>
<g mask="url(#mask0_86_2052)">
<rect width="28" height="28" fill="var(--color-outline)"/>
</g>
</svg>
