<svg width="90" height="90" viewBox="0 0 90 90" fill="none" xmlns="http://www.w3.org/2000/svg">
<path fill-rule="evenodd" clip-rule="evenodd" d="M71.25 67.5H18.75C16.6838 67.5 15 65.82 15 63.75V27.1875L42.75 48C43.4175 48.5025 44.2088 48.75 45 48.75C45.7912 48.75 46.5825 48.5025 47.25 48L75 27.1875V63.75C75 65.82 73.3162 67.5 71.25 67.5V67.5ZM68.7487 22.5L45 40.3125L21.2512 22.5H68.7487ZM71.25 15H18.75C12.5475 15 7.5 20.0475 7.5 26.25V63.75C7.5 69.9525 12.5475 75 18.75 75H71.25C77.4525 75 82.5 69.9525 82.5 63.75V26.25C82.5 20.0475 77.4525 15 71.25 15V15Z" fill="var(--color-foreground)"/>
<mask id="mask0_109_1127" style="mask-type:luminance" maskUnits="userSpaceOnUse" x="7" y="15" width="76" height="60">
<path fill-rule="evenodd" clip-rule="evenodd" d="M71.25 67.5H18.75C16.6838 67.5 15 65.82 15 63.75V27.1875L42.75 48C43.4175 48.5025 44.2088 48.75 45 48.75C45.7912 48.75 46.5825 48.5025 47.25 48L75 27.1875V63.75C75 65.82 73.3162 67.5 71.25 67.5V67.5ZM68.7487 22.5L45 40.3125L21.2512 22.5H68.7487ZM71.25 15H18.75C12.5475 15 7.5 20.0475 7.5 26.25V63.75C7.5 69.9525 12.5475 75 18.75 75H71.25C77.4525 75 82.5 69.9525 82.5 63.75V26.25C82.5 20.0475 77.4525 15 71.25 15V15Z" fill="var(--color-foreground)"/>
</mask>
<g mask="url(#mask0_109_1127)">
<rect width="90" height="90" fill="var(--color-foreground)"/>
</g>
</svg>
