<svg width="24" height="24" viewBox="0 0 24 24" fill="none" xmlns="http://www.w3.org/2000/svg">
<path fill-rule="evenodd" clip-rule="evenodd" d="M0.714355 12C0.714355 17.5625 4.77686 22.1875 10.0894 23.125L10.1521 23.0748C10.1312 23.0708 10.1103 23.0667 10.0894 23.0625V15.125H7.27686V12H10.0894V9.5C10.0894 6.6875 11.9019 5.125 14.4644 5.125C15.2769 5.125 16.1519 5.25 16.9644 5.375V8.25H15.5269C14.1519 8.25 13.8394 8.9375 13.8394 9.8125V12H16.8394L16.3394 15.125H13.8394V23.0625C13.8185 23.0667 13.7976 23.0708 13.7766 23.0748L13.8394 23.125C19.1519 22.1875 23.2144 17.5625 23.2144 12C23.2144 5.8125 18.1519 0.75 11.9644 0.75C5.77686 0.75 0.714355 5.8125 0.714355 12Z" fill="var(--color-background)"/>
</svg>
