<svg width="70" height="70" viewBox="0 0 70 70" fill="none" xmlns="http://www.w3.org/2000/svg">
<path fill-rule="evenodd" clip-rule="evenodd" d="M52.5039 42.5423C51.3489 43.0585 49.0768 43.7498 45.2122 43.7498C41.9339 43.7498 39.0843 42.6327 36.0684 41.4514C32.6793 40.1243 29.1734 38.7506 24.7955 38.7506C21.7126 38.7506 19.3239 39.121 17.5039 39.6198V34.9998V15.7964C18.6589 15.2802 20.9368 14.5831 24.7955 14.5831C28.0739 14.5831 30.9234 15.7002 33.9393 16.8814C37.3284 18.2085 40.8343 19.5823 45.2122 19.5823C47.948 19.5823 50.3922 19.2877 52.5039 18.7073V42.5423ZM56.2022 13.6498C54.8547 12.6756 53.1105 12.3985 51.5384 12.9118C49.8584 13.4573 47.6709 13.7489 45.2122 13.7489C41.9339 13.7489 39.0843 12.6318 36.0684 11.4506C32.6793 10.1235 29.1734 8.74976 24.7955 8.74976C16.3751 8.74976 13.1143 11.5264 12.5455 12.0864C11.9855 12.6318 11.6705 13.3843 11.6705 14.166V34.9998V44.1668V58.3331C11.6705 59.946 12.9743 61.2498 14.5872 61.2498C16.2001 61.2498 17.5039 59.946 17.5039 58.3331V45.7973C18.6559 45.2839 20.9251 44.5839 24.7955 44.5839C28.0739 44.5839 30.9234 45.701 33.9393 46.8823C37.3284 48.2093 40.8343 49.5831 45.2122 49.5831C50.4884 49.5831 53.7376 48.4806 55.5401 47.556C57.2668 46.6606 58.3372 44.9223 58.3372 43.0177V17.8089C58.3372 16.1756 57.5409 14.621 56.2022 13.6498V13.6498Z" fill="#787878"/>
<mask id="mask0_141_1597" style="mask-type:luminance" maskUnits="userSpaceOnUse" x="11" y="8" width="48" height="54">
<path fill-rule="evenodd" clip-rule="evenodd" d="M52.5039 42.5423C51.3489 43.0585 49.0768 43.7498 45.2122 43.7498C41.9339 43.7498 39.0843 42.6327 36.0684 41.4514C32.6793 40.1243 29.1734 38.7506 24.7955 38.7506C21.7126 38.7506 19.3239 39.121 17.5039 39.6198V34.9998V15.7964C18.6589 15.2802 20.9368 14.5831 24.7955 14.5831C28.0739 14.5831 30.9234 15.7002 33.9393 16.8814C37.3284 18.2085 40.8343 19.5823 45.2122 19.5823C47.948 19.5823 50.3922 19.2877 52.5039 18.7073V42.5423ZM56.2022 13.6498C54.8547 12.6756 53.1105 12.3985 51.5384 12.9118C49.8584 13.4573 47.6709 13.7489 45.2122 13.7489C41.9339 13.7489 39.0843 12.6318 36.0684 11.4506C32.6793 10.1235 29.1734 8.74976 24.7955 8.74976C16.3751 8.74976 13.1143 11.5264 12.5455 12.0864C11.9855 12.6318 11.6705 13.3843 11.6705 14.166V34.9998V44.1668V58.3331C11.6705 59.946 12.9743 61.2498 14.5872 61.2498C16.2001 61.2498 17.5039 59.946 17.5039 58.3331V45.7973C18.6559 45.2839 20.9251 44.5839 24.7955 44.5839C28.0739 44.5839 30.9234 45.701 33.9393 46.8823C37.3284 48.2093 40.8343 49.5831 45.2122 49.5831C50.4884 49.5831 53.7376 48.4806 55.5401 47.556C57.2668 46.6606 58.3372 44.9223 58.3372 43.0177V17.8089C58.3372 16.1756 57.5409 14.621 56.2022 13.6498V13.6498Z" fill="white"/>
</mask>
<g mask="url(#mask0_141_1597)">
<rect x="0.00390625" width="70" height="70" fill="#787878"/>
</g>
</svg>
