<?xml version="1.0" standalone="no"?>
<!DOCTYPE svg PUBLIC "-//W3C//DTD SVG 20010904//EN"
 "http://www.w3.org/TR/2001/REC-SVG-20010904/DTD/svg10.dtd">
<svg version="1.0" xmlns="http://www.w3.org/2000/svg" viewBox="0 0 512.000000 512.000000"
 preserveAspectRatio="xMidYMid meet">
<metadata>
Created by potrace 1.16, written by Peter Selinger 2001-2019
</metadata>
<g transform="translate(0.000000,512.000000) scale(0.100000,-0.100000)"
fill="var(--color-foreground)" stroke="none">
<path d="M605 5014 c-147 -18 -244 -63 -341 -159 -75 -73 -119 -146 -148 -244
-24 -80 -24 -761 0 -842 54 -185 218 -343 396 -384 l53 -11 5 -155 c4 -131 8
-159 25 -189 28 -48 97 -83 150 -75 26 4 166 77 404 210 l363 205 282 0 c219
0 295 3 341 15 193 49 351 204 400 390 23 89 22 757 -1 836 -56 187 -198 329
-389 387 -43 14 -156 16 -780 18 -401 1 -743 0 -760 -2z m1181 -695 c79 -38
105 -137 55 -208 -43 -61 -47 -61 -516 -61 -469 0 -473 0 -516 61 -50 71 -24
169 54 208 41 20 57 21 461 21 403 0 421 -1 462 -21z"/>
<path d="M3020 4830 c-55 -10 -143 -43 -189 -70 -26 -17 -32 -25 -27 -43 34
-116 37 -161 34 -556 -3 -340 -6 -404 -21 -456 -21 -72 -67 -173 -108 -236
-16 -25 -29 -51 -29 -57 0 -23 112 -120 180 -156 110 -58 166 -66 479 -66
l274 0 356 -201 c324 -184 361 -202 413 -207 47 -3 63 0 93 18 61 38 69 65 73
241 l4 157 40 6 c59 10 174 66 235 115 64 52 142 166 168 246 19 55 20 90 20
450 0 358 -2 395 -19 449 -51 154 -192 293 -355 349 -66 22 -68 22 -821 23
-415 1 -775 -2 -800 -6z m1240 -689 c38 -20 80 -82 80 -120 0 -48 -38 -108
-84 -130 -41 -20 -59 -21 -461 -21 -402 0 -420 1 -461 21 -46 22 -84 82 -84
130 0 38 42 100 80 120 32 18 65 19 465 19 400 0 433 -1 465 -19z"/>
<path d="M1511 2684 c-204 -55 -345 -225 -366 -445 l-7 -66 35 -22 c20 -12 71
-59 114 -105 77 -81 87 -97 183 -296 17 -36 222 -49 306 -20 25 9 36 23 58 78
49 121 133 234 232 313 l64 51 0 57 c0 65 -21 143 -57 216 -33 64 -135 165
-201 199 -109 55 -248 71 -361 40z"/>
<path d="M3351 2684 c-81 -22 -149 -62 -217 -129 -92 -90 -144 -209 -144 -326
l0 -57 64 -51 c99 -79 183 -192 232 -313 31 -76 42 -83 148 -94 69 -7 202 11
213 29 4 7 17 36 29 65 12 29 37 78 56 109 38 66 165 203 215 234 l35 22 -7
65 c-15 140 -60 236 -153 324 -97 93 -213 139 -347 137 -38 0 -94 -7 -124 -15z"/>
<path d="M610 1999 c-25 -5 -76 -24 -115 -43 -189 -93 -299 -305 -266 -514 62
-401 551 -563 836 -277 99 99 145 210 145 350 0 141 -46 252 -146 352 -119
117 -283 165 -454 132z"/>
<path d="M2430 1992 c-135 -35 -247 -128 -311 -256 -97 -196 -55 -435 101
-579 247 -229 633 -160 781 138 70 141 70 299 0 440 -106 213 -339 318 -571
257z"/>
<path d="M4283 1996 c-84 -21 -162 -65 -227 -130 -100 -99 -146 -211 -146
-351 0 -140 46 -252 145 -350 286 -285 774 -123 836 277 54 344 -267 636 -608
554z"/>
<path d="M1495 1412 c-3 -8 -5 -22 -5 -32 0 -19 -36 -136 -61 -197 -12 -30
-11 -33 35 -85 55 -60 113 -143 145 -205 12 -24 25 -43 29 -43 4 1 29 39 57
87 27 47 76 114 108 149 l59 64 -30 77 c-17 43 -35 105 -42 138 l-12 60 -139
0 c-107 0 -140 -3 -144 -13z"/>
<path d="M3330 1365 c-7 -33 -25 -95 -42 -138 l-30 -78 49 -52 c50 -53 117
-146 147 -205 l17 -34 44 77 c49 86 80 129 139 193 l40 44 -26 76 c-15 42 -30
93 -33 112 -13 70 -2 65 -154 65 l-139 0 -12 -60z"/>
<path d="M3826 887 c-56 -74 -112 -199 -130 -289 -10 -48 -16 -128 -16 -214 0
-154 10 -190 65 -224 32 -19 48 -20 654 -20 676 0 655 -2 700 56 19 25 21 39
21 194 0 132 -4 182 -19 243 -24 90 -67 182 -122 254 l-39 52 -74 -53 c-238
-171 -525 -203 -782 -86 -66 29 -171 97 -193 124 -7 9 -16 16 -20 16 -3 0 -24
-24 -45 -53z"/>
<path d="M144 858 c-113 -154 -144 -260 -144 -496 0 -182 6 -203 64 -238 29
-18 61 -19 657 -19 l626 0 35 27 c54 41 61 75 55 262 -4 128 -9 175 -27 231
-30 94 -81 190 -133 250 l-43 49 -66 -47 c-141 -101 -267 -141 -448 -141 -179
-1 -312 41 -459 144 -31 22 -60 40 -64 40 -4 0 -28 -28 -53 -62z"/>
<path d="M1993 868 c-58 -77 -88 -133 -119 -223 -25 -73 -28 -95 -31 -260 -4
-167 -3 -182 16 -212 45 -72 4 -68 701 -68 697 0 656 -4 701 68 19 30 20 45
16 212 -3 165 -6 187 -31 260 -15 44 -39 100 -53 125 -34 60 -103 150 -115
150 -5 0 -32 -18 -61 -39 -71 -53 -160 -96 -254 -123 -111 -32 -295 -32 -406
0 -94 27 -183 70 -254 123 -29 21 -56 39 -61 39 -5 0 -28 -24 -49 -52z"/>
</g>
</svg>
