<svg width="70" height="70" viewBox="0 0 70 70" fill="none" xmlns="http://www.w3.org/2000/svg">
<path d="M37.9166 14.5833C37.9166 16.1962 36.6099 17.4999 34.9999 17.4999C33.3899 17.4999 32.0833 16.1962 32.0833 14.5833V8.74992C32.0833 7.137 33.3899 5.83325 34.9999 5.83325C36.6099 5.83325 37.9166 7.137 37.9166 8.74992V14.5833ZM37.9166 45.091C37.9166 44.0498 38.4737 43.0843 39.3778 42.5623C42.0758 41.0135 43.7499 38.1143 43.7499 34.9993C43.7499 30.1752 39.8241 26.2493 34.9999 26.2493C30.1758 26.2493 26.2499 30.1752 26.2499 34.9993C26.2499 38.1143 27.9241 41.0135 30.622 42.5623C31.5262 43.0843 32.0833 44.0498 32.0833 45.091V58.3327H37.9166V45.091ZM20.4166 34.9993C20.4166 26.9581 26.9587 20.416 34.9999 20.416C43.0412 20.416 49.5832 26.9581 49.5832 34.9993C49.5832 39.6048 47.3841 43.9302 43.7499 46.6543V58.3327C43.7499 61.5498 41.1337 64.166 37.9166 64.166H32.0833C28.8662 64.166 26.2499 61.5498 26.2499 58.3327V46.6543C22.6128 43.9302 20.4166 39.6048 20.4166 34.9993ZM61.2499 32.0833H55.4166C53.8037 32.0833 52.4999 33.387 52.4999 34.9999C52.4999 36.6128 53.8037 37.9166 55.4166 37.9166H61.2499C62.8628 37.9166 64.1666 36.6128 64.1666 34.9999C64.1666 33.387 62.8628 32.0833 61.2499 32.0833ZM8.74992 32.0833H14.5833C16.1933 32.0833 17.4999 33.387 17.4999 34.9999C17.4999 36.6128 16.1933 37.9166 14.5833 37.9166H8.74992C7.13992 37.9166 5.83325 36.6128 5.83325 34.9999C5.83325 33.387 7.13992 32.0833 8.74992 32.0833ZM22.3407 18.7191L18.1436 14.6649C16.9857 13.5478 15.1424 13.5828 14.0195 14.7408C12.8995 15.8958 12.9315 17.7449 14.0895 18.8649L18.2865 22.9162C18.8553 23.4645 19.5845 23.7358 20.3136 23.7358C21.0778 23.7358 21.839 23.4353 22.4107 22.8433C23.5307 21.6883 23.4986 19.8391 22.3407 18.7191ZM51.8565 14.6699C53.0115 13.5528 54.8665 13.5849 55.9777 14.7399C57.0978 15.8949 57.0657 17.744 55.9077 18.8611L51.7107 22.9153C51.1478 23.4607 50.4157 23.7349 49.6865 23.7349C48.9223 23.7349 48.1582 23.4345 47.5894 22.8424C46.4694 21.6874 46.5015 19.8382 47.6594 18.7211L51.8565 14.6699Z" fill="white"/>
</svg>
