<svg width="90" height="90" viewBox="0 0 90 90" fill="none" xmlns="http://www.w3.org/2000/svg">
<path fill-rule="evenodd" clip-rule="evenodd" d="M71.25 65.4529L63.75 62.0854V24.5479L71.25 27.9154V65.4529ZM48.75 27.9154L56.25 24.5479V62.0854L48.75 65.4529V27.9154ZM33.75 24.5479L41.25 27.9154V65.4529L33.75 62.0854V24.5479ZM18.75 27.9154L26.25 24.5479V62.0854L18.75 65.4529V27.9154ZM76.5375 22.0729L61.5375 15.3304C61.4812 15.3041 61.4213 15.3004 61.365 15.2779C61.2113 15.2179 61.0575 15.1766 60.9 15.1354C60.7537 15.0979 60.6075 15.0641 60.4575 15.0491C60.3112 15.0304 60.165 15.0266 60.015 15.0266C59.85 15.0266 59.6888 15.0304 59.5238 15.0491C59.385 15.0641 59.2538 15.0979 59.1188 15.1316C58.9538 15.1729 58.7925 15.2179 58.6313 15.2779C58.5788 15.3004 58.515 15.3041 58.4625 15.3304L45 21.3791L31.5375 15.3304C31.4812 15.3041 31.4212 15.3004 31.365 15.2779C31.2112 15.2179 31.0575 15.1766 30.9 15.1354C30.7537 15.0979 30.6075 15.0641 30.4575 15.0491C30.3113 15.0304 30.165 15.0266 30.015 15.0266C29.85 15.0266 29.6888 15.0304 29.5238 15.0491C29.385 15.0641 29.2537 15.0979 29.1187 15.1316C28.9537 15.1729 28.7925 15.2179 28.6313 15.2779C28.5788 15.3004 28.515 15.3041 28.4625 15.3304L13.4625 22.0729C12.1162 22.6766 11.25 24.0154 11.25 25.4929V71.2504C11.25 72.5216 11.895 73.7066 12.9637 74.4004C13.5787 74.7979 14.2875 75.0004 15 75.0004C15.5212 75.0004 16.0462 74.8916 16.5375 74.6704L30 68.6216L43.4625 74.6704C43.5188 74.6966 43.5788 74.6854 43.6388 74.7079C44.0775 74.8841 44.5312 75.0004 45 75.0004C45.4688 75.0004 45.9225 74.8841 46.3612 74.7079C46.4175 74.6854 46.485 74.6966 46.5375 74.6704L60 68.6216L73.4625 74.6704C73.9538 74.8916 74.4788 75.0004 75 75.0004C75.7125 75.0004 76.4212 74.7979 77.0362 74.4004C78.105 73.7066 78.75 72.5216 78.75 71.2504V25.4929C78.75 24.0154 77.8837 22.6766 76.5375 22.0729V22.0729Z" fill="var(--color-foreground)"/>
<mask id="mask0_109_1075" style="mask-type:luminance" maskUnits="userSpaceOnUse" x="11" y="15" width="68" height="61">
<path fill-rule="evenodd" clip-rule="evenodd" d="M71.25 65.4529L63.75 62.0854V24.5479L71.25 27.9154V65.4529ZM48.75 27.9154L56.25 24.5479V62.0854L48.75 65.4529V27.9154ZM33.75 24.5479L41.25 27.9154V65.4529L33.75 62.0854V24.5479ZM18.75 27.9154L26.25 24.5479V62.0854L18.75 65.4529V27.9154ZM76.5375 22.0729L61.5375 15.3304C61.4812 15.3041 61.4213 15.3004 61.365 15.2779C61.2113 15.2179 61.0575 15.1766 60.9 15.1354C60.7537 15.0979 60.6075 15.0641 60.4575 15.0491C60.3112 15.0304 60.165 15.0266 60.015 15.0266C59.85 15.0266 59.6888 15.0304 59.5238 15.0491C59.385 15.0641 59.2538 15.0979 59.1188 15.1316C58.9538 15.1729 58.7925 15.2179 58.6313 15.2779C58.5788 15.3004 58.515 15.3041 58.4625 15.3304L45 21.3791L31.5375 15.3304C31.4812 15.3041 31.4212 15.3004 31.365 15.2779C31.2112 15.2179 31.0575 15.1766 30.9 15.1354C30.7537 15.0979 30.6075 15.0641 30.4575 15.0491C30.3113 15.0304 30.165 15.0266 30.015 15.0266C29.85 15.0266 29.6888 15.0304 29.5238 15.0491C29.385 15.0641 29.2537 15.0979 29.1187 15.1316C28.9537 15.1729 28.7925 15.2179 28.6313 15.2779C28.5788 15.3004 28.515 15.3041 28.4625 15.3304L13.4625 22.0729C12.1162 22.6766 11.25 24.0154 11.25 25.4929V71.2504C11.25 72.5216 11.895 73.7066 12.9637 74.4004C13.5787 74.7979 14.2875 75.0004 15 75.0004C15.5212 75.0004 16.0462 74.8916 16.5375 74.6704L30 68.6216L43.4625 74.6704C43.5188 74.6966 43.5788 74.6854 43.6388 74.7079C44.0775 74.8841 44.5312 75.0004 45 75.0004C45.4688 75.0004 45.9225 74.8841 46.3612 74.7079C46.4175 74.6854 46.485 74.6966 46.5375 74.6704L60 68.6216L73.4625 74.6704C73.9538 74.8916 74.4788 75.0004 75 75.0004C75.7125 75.0004 76.4212 74.7979 77.0362 74.4004C78.105 73.7066 78.75 72.5216 78.75 71.2504V25.4929C78.75 24.0154 77.8837 22.6766 76.5375 22.0729V22.0729Z" fill="white"/>
</mask>
<g mask="url(#mask0_109_1075)">
<rect width="90" height="90" fill="var(--color-foreground)"/>
</g>
</svg>
