<svg width="80" height="80" viewBox="0 0 80 80" fill="none" xmlns="http://www.w3.org/2000/svg">
<path d="M74.6751 39.9999C74.1191 36.4492 72.5673 33.1291 70.2001 30.4249L54.4251 11.8749C53.2473 10.4971 51.807 9.36764 50.188 8.55248C48.569 7.73731 46.8039 7.25275 44.9957 7.12708C43.1874 7.00142 41.3723 7.23715 39.6561 7.82053C37.9399 8.40391 36.3572 9.32325 35.0001 10.5249L26.6001 18.0249C25.8155 18.7267 25.1874 19.5858 24.7567 20.5463C24.326 21.5068 24.1023 22.5472 24.1001 23.5999C24.0917 24.6652 24.3102 25.7201 24.7413 26.6943C25.1724 27.6685 25.806 28.5397 26.6001 29.2499C27.1287 29.7384 27.6973 30.1816 28.3001 30.5749C29.9788 31.7457 31.8609 32.5935 33.8501 33.0749C35.3148 33.384 36.8321 33.3388 38.2758 32.9431C39.7194 32.5474 41.0477 31.8126 42.1501 30.7999L43.6751 29.4499C45.7363 31.6837 47.0702 34.491 47.5001 37.4999C47.7127 38.9254 47.7127 40.3745 47.5001 41.7999L46.8001 41.5499C42.0029 40.2632 36.8934 40.8907 32.5501 43.2999C32.1328 42.866 31.6904 42.457 31.2251 42.0749C29.6226 40.717 27.7628 39.6961 25.7569 39.0732C23.7509 38.4504 21.6399 38.2384 19.5501 38.4499C17.4443 38.6545 15.4011 39.28 13.5416 40.2892C11.6821 41.2984 10.0442 42.6708 8.72512 44.3249C6.05662 47.6771 4.79675 51.9359 5.21199 56.2003C5.62724 60.4648 7.68505 64.4005 10.9501 67.1749C13.7508 69.5352 17.2876 70.8438 20.9501 70.8749C21.4835 70.8749 22.0085 70.8749 22.5251 70.8749C23.8656 70.7239 25.1833 70.4133 26.4501 69.9499C30.4645 71.445 34.6755 72.3461 38.9501 72.6249H41.4501C51.296 72.4441 60.8466 69.2314 68.8001 63.4249C69.0687 63.2278 69.2977 62.9819 69.4751 62.6999C73.8387 55.9864 75.6811 47.9434 74.6751 39.9999ZM65.4751 59.6249C57.8295 65.1044 48.574 67.8758 39.1751 67.4999C36.7425 67.3444 34.331 66.9509 31.9751 66.3249C32.4509 65.8574 32.9015 65.3651 33.3251 64.8499C33.7152 64.3306 33.8879 63.6798 33.8066 63.0354C33.7254 62.391 33.3964 61.8035 32.8896 61.3974C32.3827 60.9912 31.7376 60.7983 31.091 60.8594C30.4444 60.9206 29.8469 61.231 29.4251 61.7249C28.5122 62.8703 27.3772 63.8194 26.0884 64.5153C24.7997 65.2113 23.3836 65.6397 21.9251 65.7749C20.4962 65.9132 19.054 65.7631 17.6841 65.3337C16.3142 64.9043 15.0444 64.2042 13.9501 63.2749C11.6786 61.3343 10.2555 58.5828 9.98459 55.6075C9.71368 52.6322 10.6164 49.6688 12.5001 47.3499C13.394 46.2158 14.5067 45.2728 15.7721 44.5772C17.0376 43.8816 18.43 43.4474 19.8665 43.3005C21.3031 43.1535 22.7545 43.2969 24.1346 43.722C25.5146 44.147 26.7952 44.8452 27.9001 45.7749C29.2523 46.9189 30.3146 48.3667 31.0001 49.9999C31.262 50.6099 31.7555 51.0909 32.372 51.337C32.9886 51.5832 33.6776 51.5743 34.2876 51.3124C34.8976 51.0505 35.3786 50.557 35.6247 49.9405C35.8709 49.324 35.862 48.6349 35.6001 48.0249L35.2751 47.3749C38.3473 45.7522 41.9192 45.3504 45.2751 46.2499C47.4012 46.8905 49.3343 48.0504 50.9001 49.6249C51.3685 50.0905 52.0022 50.3519 52.6626 50.3519C53.3231 50.3519 53.9567 50.0905 54.4251 49.6249C54.8907 49.1565 55.1521 48.5229 55.1521 47.8624C55.1521 47.2019 54.8907 46.5683 54.4251 46.0999C53.6453 45.3615 52.8094 44.6844 51.9251 44.0749C52.5262 41.6215 52.6534 39.076 52.3001 36.5749C51.6716 32.2641 49.6629 28.273 46.5751 25.1999C46.6392 25.1385 46.6977 25.0715 46.7501 24.9999L48.0751 21.7249C48.2224 21.4171 48.3052 21.0825 48.3183 20.7415C48.3314 20.4006 48.2746 20.0606 48.1513 19.7424C48.0281 19.4243 47.841 19.1347 47.6016 18.8916C47.3622 18.6484 47.0756 18.4569 46.7594 18.3287C46.4432 18.2005 46.1041 18.1384 45.763 18.1462C45.4219 18.154 45.086 18.2315 44.776 18.374C44.466 18.5165 44.1884 18.721 43.9604 18.9748C43.7324 19.2286 43.5587 19.5264 43.4501 19.8499L42.1251 23.1249C41.7083 24.0891 41.0753 24.9444 40.2751 25.6249L38.7501 26.9749C38.2385 27.4545 37.6209 27.8063 36.9475 28.0019C36.2741 28.1974 35.564 28.231 34.8751 28.0999C33.4999 27.7826 32.1948 27.2148 31.0251 26.4249C30.6135 26.1429 30.2209 25.8338 29.8501 25.4999C29.577 25.2601 29.3595 24.9637 29.2127 24.6312C29.0659 24.2987 28.9934 23.9383 29.0001 23.5749C29.0009 23.226 29.0748 22.8812 29.2169 22.5626C29.3589 22.244 29.5661 21.9586 29.8251 21.7249L38.2251 14.2249C39.0887 13.4313 40.1051 12.8222 41.2121 12.4347C42.3191 12.0473 43.4935 11.8897 44.6635 11.9716C45.8335 12.0535 46.9745 12.3732 48.0167 12.9111C49.0589 13.4489 49.9805 14.1937 50.7251 15.0999L66.5001 33.5499C68.2603 35.5654 69.4209 38.0336 69.8501 40.6749C70.6158 47.2751 69.0697 53.9367 65.4751 59.5249V59.6249Z" fill="var(--color-foreground)"/>
</svg>
