<svg width="90" height="90" viewBox="0 0 90 90" fill="none" xmlns="http://www.w3.org/2000/svg">
<path fill-rule="evenodd" clip-rule="evenodd" d="M65.2515 75C37.5427 75 15.0015 52.455 15.0015 24.75C15.0015 19.3725 19.374 15 24.7515 15C25.1602 15 25.5652 15.0262 25.9777 15.0788L29.9565 32.4075C29.4638 32.6638 28.9366 32.9395 28.4224 33.2085L27.939 33.4613C24.7065 35.1488 22.1565 36.4837 23.4952 39.4275C27.9052 51.975 38.0265 62.1 50.424 66.45C53.5825 67.7157 54.8082 65.372 56.5028 62.1317L56.5252 62.0887C56.72 61.7199 56.9205 61.3351 57.1191 60.9538L57.1192 60.9536C57.28 60.6449 57.4396 60.3386 57.594 60.045L74.919 64.02C74.9752 64.425 75.0015 64.8337 75.0015 65.25C75.0015 70.6275 70.629 75 65.2515 75ZM81.5677 59.655C81.144 58.4362 80.124 57.5213 78.864 57.2325L56.499 52.0987C55.2652 51.8212 53.9752 52.17 53.064 53.0475C52.5277 53.5575 52.5165 53.5725 50.079 58.2262C42.0915 54.5888 35.5477 48.0675 31.7827 39.915C36.429 37.4813 36.4402 37.47 36.954 36.9375C37.8315 36.0225 38.184 34.7325 37.9027 33.5025L32.769 11.1375C32.4802 9.8775 31.5615 8.85375 30.3427 8.43C29.4502 8.1225 28.5315 7.89 27.624 7.74375C26.6902 7.5825 25.7265 7.5 24.7515 7.5C15.2377 7.5 7.50146 15.2362 7.50146 24.75C7.50146 56.595 33.4065 82.5 65.2515 82.5C74.7615 82.5 82.5015 74.7637 82.5015 65.25C82.5015 64.2825 82.4152 63.3262 82.2577 62.3962C82.1077 61.4587 81.8752 60.54 81.5677 59.655ZM48.75 30C54.9525 30 60 35.0475 60 41.25C60 43.3237 61.6762 45 63.75 45C65.8237 45 67.5 43.3237 67.5 41.25C67.5 30.9113 59.0887 22.5 48.75 22.5C46.68 22.5 45 24.1763 45 26.25C45 28.3237 46.68 30 48.75 30ZM75 41.25C75 26.7787 63.2212 15 48.75 15C46.68 15 45 13.3238 45 11.25C45 9.17625 46.68 7.5 48.75 7.5C67.3612 7.5 82.5 22.6388 82.5 41.25C82.5 43.3237 80.8237 45 78.75 45C76.6762 45 75 43.3237 75 41.25Z" fill="var(--color-foreground)"/>
<mask id="mask0_109_990" style="mask-type:luminance" maskUnits="userSpaceOnUse" x="7" y="7" width="76" height="76">
<path fill-rule="evenodd" clip-rule="evenodd" d="M65.2515 75C37.5427 75 15.0015 52.455 15.0015 24.75C15.0015 19.3725 19.374 15 24.7515 15C25.1602 15 25.5652 15.0262 25.9777 15.0788L29.9565 32.4075C29.4638 32.6638 28.9366 32.9395 28.4224 33.2085L27.939 33.4613C24.7065 35.1488 22.1565 36.4837 23.4952 39.4275C27.9052 51.975 38.0265 62.1 50.424 66.45C53.5825 67.7157 54.8082 65.372 56.5028 62.1317L56.5252 62.0887C56.72 61.7199 56.9205 61.3351 57.1191 60.9538L57.1192 60.9536C57.28 60.6449 57.4396 60.3386 57.594 60.045L74.919 64.02C74.9752 64.425 75.0015 64.8337 75.0015 65.25C75.0015 70.6275 70.629 75 65.2515 75ZM81.5677 59.655C81.144 58.4362 80.124 57.5213 78.864 57.2325L56.499 52.0987C55.2652 51.8212 53.9752 52.17 53.064 53.0475C52.5277 53.5575 52.5165 53.5725 50.079 58.2262C42.0915 54.5888 35.5477 48.0675 31.7827 39.915C36.429 37.4813 36.4402 37.47 36.954 36.9375C37.8315 36.0225 38.184 34.7325 37.9027 33.5025L32.769 11.1375C32.4802 9.8775 31.5615 8.85375 30.3427 8.43C29.4502 8.1225 28.5315 7.89 27.624 7.74375C26.6902 7.5825 25.7265 7.5 24.7515 7.5C15.2377 7.5 7.50146 15.2362 7.50146 24.75C7.50146 56.595 33.4065 82.5 65.2515 82.5C74.7615 82.5 82.5015 74.7637 82.5015 65.25C82.5015 64.2825 82.4152 63.3262 82.2577 62.3962C82.1077 61.4587 81.8752 60.54 81.5677 59.655ZM48.75 30C54.9525 30 60 35.0475 60 41.25C60 43.3237 61.6762 45 63.75 45C65.8237 45 67.5 43.3237 67.5 41.25C67.5 30.9113 59.0887 22.5 48.75 22.5C46.68 22.5 45 24.1763 45 26.25C45 28.3237 46.68 30 48.75 30ZM75 41.25C75 26.7787 63.2212 15 48.75 15C46.68 15 45 13.3238 45 11.25C45 9.17625 46.68 7.5 48.75 7.5C67.3612 7.5 82.5 22.6388 82.5 41.25C82.5 43.3237 80.8237 45 78.75 45C76.6762 45 75 43.3237 75 41.25Z" fill="white"/>
</mask>
<g mask="url(#mask0_109_990)">
<rect width="90" height="90" fill="var(--color-foreground)"/>
</g>
</svg>
