<?xml version="1.0" standalone="no"?>
<!DOCTYPE svg PUBLIC "-//W3C//DTD SVG 20010904//EN"
 "http://www.w3.org/TR/2001/REC-SVG-20010904/DTD/svg10.dtd">
<svg version="1.0" xmlns="http://www.w3.org/2000/svg"
 width="512.000000pt" height="512.000000pt" viewBox="0 0 512.000000 512.000000"
 preserveAspectRatio="xMidYMid meet">
<metadata>
Created by potrace 1.16, written by Peter Selinger 2001-2019
</metadata>
<g transform="translate(0.000000,512.000000) scale(0.100000,-0.100000)"
fill="#000000" stroke="none">
<path d="M2432 4619 c-71 -28 -144 -101 -171 -174 -21 -55 -21 -70 -21 -829 0
-871 -4 -826 77 -916 25 -28 69 -63 97 -78 45 -24 62 -27 146 -27 84 0 101 3
146 27 28 15 72 50 97 78 81 90 77 45 77 916 0 759 0 774 -21 829 -45 121
-161 195 -302 194 -47 0 -90 -7 -125 -20z"/>
<path d="M1259 4119 c-76 -11 -132 -43 -198 -110 -299 -306 -502 -722 -565
-1156 -21 -146 -21 -435 0 -584 130 -933 874 -1662 1814 -1779 109 -13 391
-13 500 0 461 57 893 266 1219 590 321 319 533 743 595 1189 18 129 21 415 6
541 -56 450 -262 884 -571 1199 -85 87 -148 116 -254 116 -65 0 -90 -5 -136
-26 -68 -32 -120 -83 -156 -152 -24 -46 -28 -63 -28 -142 0 -114 18 -153 126
-273 182 -200 300 -429 356 -692 14 -68 18 -128 17 -295 -1 -201 -2 -215 -31
-327 -50 -188 -132 -361 -243 -514 -66 -91 -246 -263 -342 -327 -278 -186
-579 -267 -911 -246 -700 46 -1285 630 -1325 1324 -25 425 107 792 395 1097
76 81 107 152 107 248 0 131 -64 235 -177 289 -68 32 -127 41 -198 30z"/>
</g>
</svg>
