<svg width="22" height="22" viewBox="0 0 22 22" fill="none" xmlns="http://www.w3.org/2000/svg">
<path d="M10.9648 0.0908813C8.00215 0.0908813 7.63034 0.103836 6.46674 0.156791C5.30541 0.209972 4.51271 0.393836 3.81909 0.663609C3.10161 0.942245 2.493 1.31497 1.88665 1.92156C1.27985 2.52793 0.907134 3.13656 0.627597 3.85384C0.357151 4.5477 0.173066 5.34065 0.120794 6.50156C0.0687506 7.6652 0.0551147 8.03724 0.0551147 11C0.0551147 13.9627 0.0682964 14.3334 0.121022 15.497C0.17443 16.6584 0.358287 17.4511 0.627825 18.1447C0.90668 18.8622 1.2794 19.4709 1.88597 20.0772C2.49209 20.6841 3.1007 21.0577 3.81773 21.3363C4.5118 21.6061 5.30473 21.79 6.46583 21.8432C7.62943 21.8961 8.00101 21.9091 10.9634 21.9091C13.9263 21.9091 14.297 21.8961 15.4606 21.8432C16.6219 21.79 17.4155 21.6061 18.1096 21.3363C18.8268 21.0577 19.4345 20.6841 20.0406 20.0772C20.6474 19.4709 21.0202 18.8622 21.2997 18.145C21.5679 17.4511 21.752 16.6582 21.8065 15.4972C21.8588 14.3336 21.8724 13.9627 21.8724 11C21.8724 8.03724 21.8588 7.66543 21.8065 6.50179C21.752 5.34043 21.5679 4.5477 21.2997 3.85406C21.0202 3.13656 20.6474 2.52793 20.0406 1.92156C19.4338 1.31474 18.827 0.942018 18.1089 0.663609C17.4135 0.393836 16.6203 0.209972 15.459 0.156791C14.2954 0.103836 13.9249 0.0908813 10.9614 0.0908813H10.9648ZM9.98618 2.05679C10.2766 2.05634 10.6007 2.05679 10.9648 2.05679C13.8774 2.05679 14.2226 2.06724 15.3728 2.11952C16.4364 2.16815 17.0137 2.34588 17.3982 2.4952C17.9073 2.69293 18.2702 2.92929 18.6518 3.31111C19.0336 3.69293 19.27 4.05656 19.4682 4.56565C19.6175 4.94974 19.7954 5.52702 19.8438 6.59065C19.8961 7.74065 19.9075 8.08611 19.9075 10.9975C19.9075 13.9088 19.8961 14.2543 19.8438 15.4043C19.7952 16.4679 19.6175 17.0452 19.4682 17.4293C19.2704 17.9384 19.0336 18.3009 18.6518 18.6825C18.27 19.0643 17.9075 19.3007 17.3982 19.4984C17.0141 19.6484 16.4364 19.8257 15.3728 19.8743C14.2229 19.9266 13.8774 19.9379 10.9648 19.9379C8.05192 19.9379 7.7067 19.9266 6.55674 19.8743C5.49313 19.8252 4.91588 19.6475 4.53112 19.4982C4.02204 19.3004 3.65841 19.0641 3.27661 18.6822C2.8948 18.3004 2.65844 17.9377 2.46027 17.4284C2.31096 17.0443 2.13301 16.467 2.0846 15.4034C2.03233 14.2534 2.02187 13.9079 2.02187 10.9947C2.02187 8.08156 2.03233 7.73793 2.0846 6.58793C2.13323 5.52429 2.31096 4.94702 2.46027 4.56247C2.65799 4.05338 2.8948 3.68974 3.27661 3.30793C3.65841 2.92611 4.02204 2.68974 4.53112 2.49156C4.91565 2.34156 5.49313 2.16429 6.55674 2.11543C7.56307 2.06997 7.95306 2.05634 9.98618 2.05406V2.05679ZM16.7878 3.86815C16.0651 3.86815 15.4787 4.45384 15.4787 5.17679C15.4787 5.89952 16.0651 6.48588 16.7878 6.48588C17.5105 6.48588 18.0968 5.89952 18.0968 5.17679C18.0968 4.45406 17.5105 3.8677 16.7878 3.8677V3.86815ZM10.9648 5.3977C7.87101 5.3977 5.36268 7.90611 5.36268 11C5.36268 14.0938 7.87101 16.6011 10.9648 16.6011C14.0586 16.6011 16.566 14.0938 16.566 11C16.566 7.90611 14.0583 5.3977 10.9646 5.3977H10.9648ZM10.9648 7.36361C12.9729 7.36361 14.601 8.99156 14.601 11C14.601 13.0082 12.9729 14.6363 10.9648 14.6363C8.95644 14.6363 7.32853 13.0082 7.32853 11C7.32853 8.99156 8.95644 7.36361 10.9648 7.36361V7.36361Z" fill="var(--color-background)"/>
</svg>
