<svg width="26" height="26" viewBox="0 0 26 26" fill="none" xmlns="http://www.w3.org/2000/svg">
<path d="M6.49967 22.5335C7.69629 22.5335 8.66634 21.5635 8.66634 20.3669C8.66634 19.1702 7.69629 18.2002 6.49967 18.2002C5.30306 18.2002 4.33301 19.1702 4.33301 20.3669C4.33301 21.5635 5.30306 22.5335 6.49967 22.5335Z" stroke="black" stroke-width="1.5" stroke-linecap="round" stroke-linejoin="round"/>
<path d="M18.6333 22.5335C19.83 22.5335 20.8 21.5635 20.8 20.3669C20.8 19.1702 19.83 18.2002 18.6333 18.2002C17.4367 18.2002 16.4667 19.1702 16.4667 20.3669C16.4667 21.5635 17.4367 22.5335 18.6333 22.5335Z" stroke="black" stroke-width="1.5" stroke-linecap="round" stroke-linejoin="round"/>
<path d="M18.1997 18.2001H6.46634V3.4668H4.33301" stroke="black" stroke-width="1.5" stroke-linecap="round" stroke-linejoin="round"/>
<path d="M6.93359 5.2002L21.6669 6.28353L20.6145 13.8669H6.93359" stroke="black" stroke-width="1.5" stroke-linecap="round" stroke-linejoin="round"/>
</svg>
