<svg width="80" height="80" viewBox="0 0 80 80" fill="none" xmlns="http://www.w3.org/2000/svg">
<path d="M67.5 17.5V15.65C67.4934 14.1536 66.896 12.7203 65.8379 11.6621C64.7797 10.604 63.3464 10.0066 61.85 10H58.15C56.6536 10.0066 55.2203 10.604 54.1621 11.6621C53.104 12.7203 52.5066 14.1536 52.5 15.65V17.5H27.5V15.65C27.4934 14.1536 26.896 12.7203 25.8379 11.6621C24.7797 10.604 23.3464 10.0066 21.85 10H18.15C16.6536 10.0066 15.2203 10.604 14.1621 11.6621C13.104 12.7203 12.5066 14.1536 12.5 15.65V17.5C10.5109 17.5 8.60322 18.2902 7.1967 19.6967C5.79018 21.1032 5 23.0109 5 25C5 26.9891 5.79018 28.8968 7.1967 30.3033C8.60322 31.7098 10.5109 32.5 12.5 32.5V34.35C12.5066 35.8464 13.104 37.2797 14.1621 38.3379C15.2203 39.396 16.6536 39.9934 18.15 40H21.85C23.3464 39.9934 24.7797 39.396 25.8379 38.3379C26.896 37.2797 27.4934 35.8464 27.5 34.35V32.5H30V50H25C23.0109 50 21.1032 50.7902 19.6967 52.1967C18.2902 53.6032 17.5 55.5109 17.5 57.5V67.5C16.837 67.5 16.2011 67.7634 15.7322 68.2322C15.2634 68.7011 15 69.337 15 70C15 70.663 15.2634 71.2989 15.7322 71.7678C16.2011 72.2366 16.837 72.5 17.5 72.5H22.5C23.163 72.5 23.7989 72.2366 24.2678 71.7678C24.7366 71.2989 25 70.663 25 70C25 69.337 24.7366 68.7011 24.2678 68.2322C23.7989 67.7634 23.163 67.5 22.5 67.5V57.5C22.5 56.837 22.7634 56.2011 23.2322 55.7322C23.7011 55.2634 24.337 55 25 55H55C55.663 55 56.2989 55.2634 56.7678 55.7322C57.2366 56.2011 57.5 56.837 57.5 57.5V67.5C56.837 67.5 56.2011 67.7634 55.7322 68.2322C55.2634 68.7011 55 69.337 55 70C55 70.663 55.2634 71.2989 55.7322 71.7678C56.2011 72.2366 56.837 72.5 57.5 72.5H62.5C63.163 72.5 63.7989 72.2366 64.2678 71.7678C64.7366 71.2989 65 70.663 65 70C65 69.337 64.7366 68.7011 64.2678 68.2322C63.7989 67.7634 63.163 67.5 62.5 67.5V57.5C62.5 55.5109 61.7098 53.6032 60.3033 52.1967C58.8968 50.7902 56.9891 50 55 50H50V32.5H52.5V34.35C52.5066 35.8464 53.104 37.2797 54.1621 38.3379C55.2203 39.396 56.6536 39.9934 58.15 40H61.85C63.3464 39.9934 64.7797 39.396 65.8379 38.3379C66.896 37.2797 67.4934 35.8464 67.5 34.35V32.5C69.4891 32.5 71.3968 31.7098 72.8033 30.3033C74.2098 28.8968 75 26.9891 75 25C75 23.0109 74.2098 21.1032 72.8033 19.6967C71.3968 18.2902 69.4891 17.5 67.5 17.5ZM10 25C10 24.337 10.2634 23.7011 10.7322 23.2322C11.2011 22.7634 11.837 22.5 12.5 22.5V27.5C11.837 27.5 11.2011 27.2366 10.7322 26.7678C10.2634 26.2989 10 25.663 10 25ZM22.5 34.35C22.5 34.5224 22.4315 34.6877 22.3096 34.8096C22.1877 34.9315 22.0224 35 21.85 35H18.15C17.9776 35 17.8123 34.9315 17.6904 34.8096C17.5685 34.6877 17.5 34.5224 17.5 34.35V15.65C17.5 15.4776 17.5685 15.3123 17.6904 15.1904C17.8123 15.0685 17.9776 15 18.15 15H21.85C22.0224 15 22.1877 15.0685 22.3096 15.1904C22.4315 15.3123 22.5 15.4776 22.5 15.65V34.35ZM45 50H35V32.5H45V50ZM27.5 27.5V22.5H52.5V27.5H27.5ZM62.5 34.35C62.5 34.5224 62.4315 34.6877 62.3096 34.8096C62.1877 34.9315 62.0224 35 61.85 35H58.15C57.9776 35 57.8123 34.9315 57.6904 34.8096C57.5685 34.6877 57.5 34.5224 57.5 34.35V15.65C57.5 15.4776 57.5685 15.3123 57.6904 15.1904C57.8123 15.0685 57.9776 15 58.15 15H61.85C61.9354 15 62.0199 15.0168 62.0987 15.0495C62.1776 15.0821 62.2493 15.13 62.3096 15.1904C62.37 15.2507 62.4179 15.3224 62.4505 15.4013C62.4832 15.4801 62.5 15.5646 62.5 15.65V34.35ZM67.5 27.5V22.5C68.163 22.5 68.7989 22.7634 69.2678 23.2322C69.7366 23.7011 70 24.337 70 25C70 25.663 69.7366 26.2989 69.2678 26.7678C68.7989 27.2366 68.163 27.5 67.5 27.5Z" fill="var(--color-outline)"/>
</svg>
