<svg width="23" height="24" viewBox="0 0 23 24" fill="none" xmlns="http://www.w3.org/2000/svg">
<path fill-rule="evenodd" clip-rule="evenodd" d="M11.9908 0.697987C14.7768 0.83491 17.3728 1.98378 19.3556 3.96793C21.4706 6.08425 22.6348 8.89742 22.6337 11.8891C22.6311 18.0627 17.6053 23.0858 11.4313 23.0858C9.10962 23.0858 7.26464 22.3725 6.07334 21.723L0.134766 23.28L1.72407 17.4778C0.743734 15.7798 0.227888 13.8537 0.228697 11.8802C0.231176 5.70677 5.25657 0.684143 11.4312 0.684143L11.9908 0.697987ZM6.34845 19.696L6.6885 19.8976C8.11807 20.7456 9.75674 21.1942 11.4275 21.1949H11.4313C16.5633 21.1949 20.7402 17.0199 20.7422 11.8885C20.7432 9.40181 19.7756 7.06361 18.0177 5.30457C16.2597 3.54541 13.922 2.57607 11.435 2.57526C6.29909 2.57526 2.12216 6.74974 2.12011 11.8809C2.11941 13.6394 2.61165 15.3519 3.54369 16.8336L3.76508 17.1857L2.82446 20.6199L6.34845 19.696ZM17.075 14.5517C17.005 14.4349 16.8185 14.3649 16.5385 14.2249C16.2586 14.0848 14.8825 13.408 14.6259 13.3146C14.3693 13.2213 14.1827 13.1747 13.9961 13.4547C13.8096 13.7347 13.2731 14.3649 13.1098 14.5517C12.9465 14.7384 12.7833 14.7617 12.5034 14.6217C12.2235 14.4817 11.3216 14.1862 10.2524 13.2331C9.4203 12.4912 8.85853 11.5751 8.69524 11.295C8.53201 11.0149 8.67784 10.8635 8.81795 10.724C8.9439 10.5986 9.09792 10.3972 9.23787 10.2338C9.37783 10.0705 9.42444 9.95375 9.51778 9.76711C9.61107 9.58037 9.5644 9.41705 9.49445 9.277C9.42444 9.1369 8.86468 7.75981 8.63144 7.19962C8.40418 6.65414 8.17342 6.72798 8.00161 6.71937C7.83854 6.71129 7.65175 6.70951 7.46518 6.70951C7.27856 6.70951 6.97531 6.77948 6.71874 7.05963C6.46216 7.33967 5.73905 8.01658 5.73905 9.39357C5.73905 10.7707 6.74207 12.1009 6.88203 12.2877C7.02198 12.4745 8.85578 15.3002 11.6637 16.5122C12.3315 16.8004 12.8529 16.9725 13.2594 17.1015C13.9299 17.3144 14.5401 17.2844 15.0224 17.2123C15.5602 17.132 16.6785 16.5355 16.9117 15.8821C17.145 15.2285 17.145 14.6683 17.075 14.5517Z" fill="var(--color-background)"/>
</svg>
