<svg width="80" height="80" viewBox="0 0 80 80" fill="none" xmlns="http://www.w3.org/2000/svg">
<path d="M74.525 46.0751C74.2977 45.7474 73.9953 45.4788 73.643 45.2918C73.2907 45.1048 72.8988 45.0048 72.5 45.0001C69.9914 44.9109 67.4799 45.0616 65 45.4501C65.2785 44.5238 65.4957 43.5801 65.65 42.6251C66.4018 37.6669 65.4029 32.6017 62.825 28.3001C62.5433 27.8281 62.1139 27.4621 61.6032 27.2587C61.0925 27.0554 60.529 27.026 60 27.1751C58.2062 27.7069 56.4587 28.3842 54.775 29.2001C54.7411 28.4786 54.6575 27.7602 54.525 27.0501C53.9698 23.9893 52.7494 21.0876 50.95 18.5501C48.3473 15.0056 44.9132 12.1553 40.95 10.2501C40.6076 10.0823 40.2313 9.99512 39.85 9.99512C39.4687 9.99512 39.0924 10.0823 38.75 10.2501C34.7867 12.1553 31.3526 15.0056 28.75 18.5501C26.5535 21.6924 25.2568 25.3749 25 29.2001C23.3909 28.3976 21.7186 27.7287 20 27.2001C19.4709 27.051 18.9075 27.0804 18.3968 27.2837C17.8861 27.4871 17.4567 27.8531 17.175 28.3251C14.5971 32.6267 13.5982 37.6919 14.35 42.6501C14.507 43.6127 14.7241 44.5646 15 45.5001C12.5232 45.0815 10.0104 44.914 7.49999 45.0001C7.1007 44.9828 6.70308 45.0615 6.34048 45.2296C5.97788 45.3977 5.66085 45.6502 5.41599 45.9661C5.17113 46.282 5.00557 46.652 4.93319 47.045C4.86081 47.4381 4.88371 47.8428 4.99999 48.2251C6.14116 51.9158 8.04032 55.3275 10.5759 58.242C13.1115 61.1564 16.2277 63.5093 19.725 65.1501C23.1825 66.7079 26.9328 67.5091 30.725 67.5001C33.8824 67.5163 37.0194 66.9921 40 65.9501C42.9489 66.9809 46.0511 67.505 49.175 67.5001C52.9672 67.5091 56.7175 66.7079 60.175 65.1501C63.6909 63.5205 66.8264 61.1726 69.3798 58.2575C71.9331 55.3425 73.8476 51.925 75 48.2251C75.0902 47.8543 75.0943 47.4677 75.0119 47.095C74.9296 46.7223 74.763 46.3735 74.525 46.0751ZM33 21.4751C34.8548 18.9438 37.2449 16.8525 40 15.3501C42.7551 16.8525 45.1452 18.9438 47 21.4751C48.3818 23.4142 49.3206 25.6332 49.75 27.9751C49.9915 29.3781 50.0587 30.8056 49.95 32.2251C45.546 35.4091 42.0896 39.7296 39.95 44.7251C38.9683 42.3677 37.6824 40.1489 36.125 38.1251C34.3801 35.872 32.3168 33.8845 30 32.2251C29.7038 28.4004 30.7662 24.5938 33 21.4751ZM21.9 60.6001C17.201 58.4304 13.4137 54.6786 11.2 50.0001C14.9192 50.2467 18.5743 51.0908 22.025 52.5001C27.0535 54.62 31.5022 57.9115 35 62.1001C30.5822 62.9384 26.014 62.4153 21.9 60.6001ZM23.925 47.9501C22.8646 47.5119 21.7794 47.1363 20.675 46.8251C20.6892 46.7005 20.6892 46.5747 20.675 46.4501C19.9687 45.007 19.4881 43.4641 19.25 41.8751C18.7818 38.7415 19.2244 35.5393 20.525 32.6501C25.1795 34.3416 29.2554 37.3248 32.275 41.2501C35.7178 45.8885 37.5524 51.5239 37.5 57.3001C33.6979 53.246 29.0682 50.0572 23.925 47.9501ZM42.5 57.3001C42.462 51.5182 44.3143 45.8822 47.775 41.2501C50.7946 37.3248 54.8705 34.3416 59.525 32.6501C60.8256 35.5393 61.2682 38.7415 60.8 41.8751C60.5619 43.4641 60.0813 45.007 59.375 46.4501C59.3609 46.5664 59.3609 46.6839 59.375 46.8001C58.275 47.1501 57.175 47.5001 56.125 47.9501C50.9639 50.0509 46.3166 53.2401 42.5 57.3001ZM58.075 60.6001C53.9308 62.4342 49.325 62.9576 44.875 62.1001C48.4082 57.8954 52.9013 54.6027 57.975 52.5001C61.4256 51.0908 65.0808 50.2467 68.8 50.0001C66.5863 54.6786 62.799 58.4304 58.1 60.6001H58.075Z" fill="var(--color-foreground)"/>
<path d="M40 27.5C40.663 27.5 41.2989 27.2366 41.7678 26.7678C42.2366 26.2989 42.5 25.663 42.5 25C42.5 24.337 42.2366 23.7011 41.7678 23.2322C41.2989 22.7634 40.663 22.5 40 22.5C39.337 22.5 38.7011 22.7634 38.2322 23.2322C37.7634 23.7011 37.5 24.337 37.5 25C37.5 25.663 37.7634 26.2989 38.2322 26.7678C38.7011 27.2366 39.337 27.5 40 27.5Z" fill="var(--color-foreground)"/>
<path d="M40 35C40.663 35 41.2989 34.7366 41.7678 34.2678C42.2366 33.7989 42.5 33.163 42.5 32.5C42.5 31.837 42.2366 31.2011 41.7678 30.7322C41.2989 30.2634 40.663 30 40 30C39.337 30 38.7011 30.2634 38.2322 30.7322C37.7634 31.2011 37.5 31.837 37.5 32.5C37.5 33.163 37.7634 33.7989 38.2322 34.2678C38.7011 34.7366 39.337 35 40 35Z" fill="var(--color-foreground)"/>
</svg>
