<?xml version="1.0" encoding="UTF-8"?>
<svg id="Layer_1" data-name="Layer 1" xmlns="http://www.w3.org/2000/svg" viewBox="0 0 2218.81 712">
  <defs>
    <style>
      .cls-1 {
        fill: #fffbf7;
        stroke-width: 0px;
      }
    </style>
  </defs>
  <path class="cls-1" d="M964.53,349.06c-50.04-.36-87.24,35.23-87.54,83.54-.3,48.94,36.44,84.63,87.17,84.68,48.68.05,87.24-34.23,86.82-83.45.95-48.22-35.78-84.41-86.45-84.77h0ZM973.71,479.7c-3.8,2.22-7.95.47-11.9,1.03-2.17-.31-4.54.76-6.52-.91-16.1-4.65-28.19-13.59-32.74-30.6,13.35-.59,26.28,1.45,38.84,6.04,10.44,3.81,21.32,5.55,32.35,6.53,1.81.16,3.87-.35,5.03,1.73-6.27,8.61-15.32,12.92-25.05,16.18h-.01ZM1005.07,419.69c-15.49.54-30.36-2.18-44.76-7.94-7.23-2.89-14.74-4.79-22.62-5.22-3.04-.17-6.54.22-8.81-2.77,21.02-28.99,67.53-20.21,76.78,12.75.56,1.2.41,2.27-.59,3.18Z"/>
  <path class="cls-1" d="M576.24,640.85c-13.19,7.02-27.1,10.01-40.99,12.24-52.62,8.45-104.61,5.58-155.01-12.49-93.49-33.51-159.74-95.98-195.48-188.96-19.88-51.72-23.15-105.45-14.45-160.21,9.29-58.49,30.07-111.96,66.97-158.53,43.22-54.54,98.59-89.85,168.23-98.49,55.83-6.92,109.55,1.51,157.01,34.5,31.2,21.69,49.52,52.74,61.13,88.27,17.58,53.81,16.36,106.19-11.1,156.81-16.16,29.8-40.55,51.55-68.19,70.15-15.44,10.39-31.71,19.59-45.7,32.05-36.12,32.17-53.74,72.14-48.33,120.54,4.02,35.99,24.34,62.31,54.7,80.91,18.8,11.52,39.23,19.13,61.38,21.53,3.3.36,6.55,1.1,9.82,1.67h0Z"/>
  <path class="cls-1" d="M788.1,354.3c-1.98,80.87-36.19,158.62-105.38,220.25-20.64,18.38-42.66,35.54-69.59,43.62-43.76,13.14-83.18,3.26-114.47-29.57-29.35-30.79-37.43-68.39-25.76-109.8,1.52-5.39,3.84-6.92,9.66-6.5,45.11,3.26,87.16-7.03,124.74-32.1,63.12-42.11,94.53-102.07,95.53-177.64.36-27.28-6.3-53.54-16.77-78.75-3.36-8.09-5.38-16.28-4.37-25.21,1.56-13.8,13.71-17.34,22.64-15.7,9.4,1.73,15.89,7.59,21.29,14.86,40.86,54.93,62.11,116.48,62.5,196.55h-.02Z"/>
  <path class="cls-1" d="M1735.68,279.91c-12.89,0-25.79.02-38.68.03-2.04-2.35-1.01-5.17-1.02-7.74-.08-29.38,0-58.77-.17-88.15-.01-2.34,2.2-5.81-2.01-7.17-11.86,30.82-22.26,62.18-35.17,92.62-2.44,5.76-2.11,11.21-11.16,11.12-8.46-.08-11.94-2.6-14.7-10.53-9.65-27.75-20.25-55.17-30.51-82.71-1.28-3.44-2.4-6.99-6.15-10.42v16.23c0,26.75-.12,53.51.1,80.26.04,5.1-1.04,7.17-6.6,6.9-10.78-.52-21.6-.33-32.41-.43-1.81-3.21-1.69-6.74-1.69-10.24-.02-47.68-.02-95.36.01-143.03,0-2.91-.55-5.99,1.62-8.51,17.02-.12,34.04-.08,51.05-.47,5.07-.11,5.47,3.42,6.64,6.59,9.41,25.56,18.78,51.14,28.17,76.72.74,2.02,1.53,4.02,2.35,6.16,3.27-1.61,3.24-4.91,4.2-7.49,9.42-25.28,18.82-50.56,27.93-75.95,1.64-4.56,3.84-6.18,8.72-6.05,16.47.43,32.95.36,49.43.49,1.57,2.78.78,5.81.79,8.71.09,43.34.12,86.68-.04,130.02-.03,7.68,3.05,15.49-.7,23.06v-.02Z"/>
  <path class="cls-1" d="M1732.31,350.12s.24,96.73.34,144.28c.03,11.59-5.68,17.38-17.12,17.38-1.35,0-2.74-.22-4.05.03-15.86,0-25.8-7.07-34.81-16.08-13.21-17.03-24.06-35.07-30.32-55.77-4.63-15.34-11.86-29.39-21.33-42.64-2.68,2.56-1.48,5.39-1.49,7.82-.1,32.42-.03,64.85-.14,97.27,0,2.78,1.36,5.93-1.2,8.4-11.94.84-24.21.35-36.31.73-2.88.09-3.69-1.59-3.6-4.13.05-1.35,0-2.7,0-4.05v-144.17c0-8.94.04-9.01,8.96-9.05,12.96-.06,25.93,0,38.89-.03,3,0,5.94.16,8.7,1.47,19.07,15.73,31.51,36.08,39.81,58.96,4.01,11.06,7.13,22.45,11.79,33.3,2.85,0,2.09-4.83,2.11-7.17.19-25.91.32-51.83-.02-77.73-.09-6.6,1.17-8.85,1.17-8.85l38.6.03h.02Z"/>
  <path class="cls-1" d="M1372.11,118.11h38.83c1.63,2.76.8,5.79.81,8.67.07,28.49,0,56.98.1,85.48,0,2.55-1.1,5.33.86,7.69,6.51,18.96,15.04,25.85,32.26,26.04,19.85.22,32.35-11.37,32.58-31.21.35-29.46.41-58.94-.05-88.4-.11-7.34,1.95-9.25,8.99-8.79,10.5.7,21.06.4,31.59.52,1.08,1.42.82,3.08.82,4.68.01,35.07.01,70.14,0,105.21,0,1.35.03,2.7-.71,3.92-3.2,21.27-15.07,36.26-34.69,44.08-25.62,10.22-51.92,10.22-77.4-.5-20.16-8.49-31.8-24.31-34.26-46.39-1.32-6.93-.55-13.92-.58-20.88-.11-27.42-.07-54.84,0-82.25,0-2.63-.74-5.39.81-7.88h.04Z"/>
  <path class="cls-1" d="M1503.71,351.66c12.3,31.95,24.65,63.88,36.88,95.85,7.33,19.16,14.28,38.47,21.83,57.54,2.28,5.76.89,6.99-4.8,6.82-10-.31-20.04-.5-30.02.06-6.47.36-9.36-1.61-11.43-8.02-11.71-36.21-23.97-72.25-36.12-108.32-.84-2.5-1.04-5.37-3.66-7.61-9.92,29.83-19.76,59.47-29.64,89.1-3.16,9.48-6.67,18.84-9.5,28.41-1.36,4.61-3.34,6.58-8.41,6.41-11.35-.38-22.72-.19-34.08-.08-3.79.04-5.49-.42-3.75-4.97,19.77-51.65,39.37-103.37,59.01-155.08,2.1-1.5,4.52-1.62,6.98-1.63,13.51-.02,27.02-.03,40.52,0,2.18,0,4.33.12,6.17,1.51h.02Z"/>
  <path class="cls-1" d="M1171.04,351.66c17.59,2.7,31.46,12.17,43.84,24.26,2.97,2.9,3.1,5.47-.92,7.99-8.19,5.11-16.2,10.52-24.21,15.91-2.4,1.61-4.2,2.81-6.82-.1-14.08-15.64-42.39-15.43-56.8-2.77-16.1,14.15-20.04,40.83-9.31,61.06,13.04,24.59,48.07,26.43,64.08,10.36,4.57-4.59,7.22-3.31,11.27-.38,5.21,3.77,10.53,7.47,16.16,10.56,10.32,5.67,10.65,8.74,1.6,16.98-17.5,15.93-38.24,22.57-61.58,21.51-40.26-1.82-72.12-31.09-76.75-70.27-5.36-45.4,16.69-82.04,56.44-93.86,2.6-.77,5.14-1.66,7.91-1.33,11.7-.92,23.4-1.16,35.1.08h0Z"/>
  <path class="cls-1" d="M919.15,153.74c.2,7.79-2.51,17.93,1.38,22.74,4.13,5.12,14.68,1.32,22.42,1.58,10.27.34,20.56.33,30.83.09,4.33-.1,5.65,1.43,5.5,5.62-.28,8.1-.39,16.23-.09,24.33.17,4.61-1.33,6.05-5.95,5.98-15.96-.25-31.93.14-47.88-.25-5.13-.12-6.4,1.36-6.32,6.3.28,17.85-.11,35.7.24,53.55.11,5.48-1.68,6.84-6.87,6.64-9.99-.39-20.02-.3-30.02-.03-4.32.12-5.5-1.37-5.49-5.57.12-50.57.13-101.15,0-151.72-.01-4.49,1.76-5.34,5.73-5.33,30.3.12,60.6.11,90.9,0,3.91-.01,5.97.7,5.77,5.27-.4,9.17-.31,18.37-.42,27.55-2.5,2.28-5.59,1.57-8.48,1.58-14.26.07-28.53,0-42.79.07-2.87.02-5.99-.81-8.45,1.57v.03Z"/>
  <path class="cls-1" d="M1481.78,611.1c0,6.3-.08,12.59.03,18.89.06,3.31-.19,5.58-4.63,5.59-4.77,0-4.28-2.84-4.27-5.84.02-9.71-.04-19.42.04-29.13.02-2.43-1.15-6.1,3.39-5.59,3.56.4,8.2-2.37,10.25,3.37,2.41,6.73,5.19,13.32,8.34,21.29,3.07-7.64,6.08-13.95,8.11-20.56,1.99-6.44,6.86-3.93,10.67-4.06,5.25-.18,2.89,4.24,2.96,6.57.28,9.43.08,18.88.13,28.32.02,3.12.23,5.69-4.43,5.65-4.98-.04-4.01-3.16-4.04-5.96-.05-6.47-.02-12.94-1.22-19.86-2.8,6.92-5.58,13.85-8.43,20.76-.78,1.89-.87,4.59-3.6,4.76-2.95.18-3.01-2.7-3.77-4.54-2.73-6.59-5.29-13.25-7.91-19.88-.55.08-1.09.15-1.64.23h.02Z"/>
  <path class="cls-1" d="M1738.77,609.91c-2.72,6.87-5.37,13.77-8.21,20.6-.77,1.85-.85,4.61-3.63,4.78-2.96.17-3.05-2.73-3.8-4.52-2.85-6.84-5.46-13.78-9.74-20.37,0,6.28.01,12.56,0,18.83,0,3.17.8,6.48-4.57,6.35-5.02-.12-3.93-3.3-3.95-6.04-.07-9.44-.17-18.89.08-28.32.06-2.16-2.08-6.32,2.53-6.11,3.73.17,8.75-2.8,10.96,3.43,2.42,6.82,5.3,13.47,8.36,21.16,2.93-7.41,5.5-13.9,8.05-20.39.88-2.24,1.44-4.37,4.75-4.48,5.81-.19,10.32-.5,9.31,8.04-1.01,8.51-.09,17.24-.29,25.87-.06,2.71,1.89,6.68-3.9,6.81-6.25.15-4.35-4.13-4.45-7.17-.2-6.04-.06-12.09-.06-18.14-.48-.11-.96-.22-1.45-.34h0Z"/>
  <path class="cls-1" d="M1390.71,611.09c0,5.9.1,11.81-.04,17.71-.07,2.93,1.36,6.65-4.21,6.77-5.4.11-4.51-3.26-4.52-6.42-.01-9.19-.15-18.39.1-27.58.06-2.24-2.07-5.94,2.26-6.54,3.38-.47,6.73-.69,9.22,3.11,4.58,6.98,9.74,13.57,16.28,22.55,0-7.93-.07-13.6.03-19.28.05-2.97-1.27-6.56,4.27-6.65,5.24-.08,4.69,2.97,4.67,6.28-.04,9.46.07,18.93-.08,28.39-.03,2.13,1.38,5.38-2.34,5.89-2.85.39-5.77.65-7.93-2.48-5.17-7.51-10.66-14.81-16.01-22.19-.57.14-1.13.29-1.7.43h0Z"/>
  <path class="cls-1" d="M990.31,609.98c0,2.16.02,4.32,0,6.48-.17,13.36-5.88,19.41-18.31,19.43-12.55.01-18.36-5.98-18.53-19.2-.07-5.13-.06-10.26,0-15.39.04-3.02-1.16-6.48,4.33-6.53,5.11-.04,4.86,2.75,4.81,6.18-.09,5.94,0,11.88,0,17.82,0,6.4,3.38,9.49,9.57,9.37,5.81-.1,8.96-3.18,8.96-9.16,0-6.48.17-12.97-.03-19.44-.11-3.48,1.05-4.73,4.6-4.72,3.46.01,4.9,1.05,4.65,4.64-.25,3.49-.05,7.02-.05,10.53h0Z"/>
  <path class="cls-1" d="M1068.94,614.74c.82-6.48-2.7-14.97,1.6-18.7,3.61-3.14,11.86-.96,18.05-1.12,1.89-.05,3.8.12,5.68-.03,2.91-.25,3.64,1.11,3.66,3.81.03,3.02-1.44,3.59-3.98,3.52-3.78-.11-7.58.15-11.36-.08-3.53-.21-4.75,1.1-4.68,4.65.06,3.3,1.44,4.19,4.44,4.06,3.78-.16,7.57.02,11.36-.04,2.61-.04,3.88.83,3.91,3.73.03,3.04-1.45,3.64-3.98,3.58-3.51-.07-7.05.19-10.54-.07-3.76-.28-5.2.86-5.24,4.9-.03,4.1,1.5,5.11,5.2,4.83,3.5-.26,7.04.08,10.54-.1,3-.15,4.38.68,4.35,4.02-.03,3.55-1.92,3.94-4.65,3.76-1.08-.07-2.17.05-3.24-.02-6.68-.44-15.24,2.86-19.55-1.27-4.41-4.22-.67-12.86-1.57-19.44h0Z"/>
  <path class="cls-1" d="M1011.58,635.9c-4.71.11-9.09-1.03-13.12-3.42-2.13-1.26-4.25-2.39-1.97-5.56,1.86-2.6,3.11-3.81,6.2-1.36,3,2.38,6.86,3.09,10.73,2.74,2.47-.22,5.13-.85,5.68-3.67.6-3.07-2.02-4.13-4.32-4.88-3.32-1.08-6.76-1.78-10.11-2.81-5.47-1.68-9.06-5.29-8.68-11.16.36-5.67,4-9.21,9.5-10.73,6.29-1.73,12.3-.82,18.03,2.07,1.88.95,4.15,2.15,2.01,4.87-1.4,1.77-2.32,4.49-5.62,2.34-3.22-2.1-6.87-3.13-10.79-2.48-1.96.32-3.65,1.15-3.99,3.37-.37,2.42,1.45,3.43,3.21,4,3.07.99,6.3,1.46,9.38,2.44,6.05,1.91,10.94,4.95,10.31,12.43-.64,7.56-5.73,10.46-12.4,11.58-1.32.22-2.69.17-4.04.24h-.01Z"/>
  <path class="cls-1" d="M1258.93,615.18c0-6.44-2.52-15.01.65-18.77,3.78-4.48,12.64-.92,19.26-1.47,1.34-.11,2.7.03,4.05-.03,2.71-.12,4.71.21,4.56,3.83-.13,3.11-1.85,3.45-4.22,3.43-3.51-.02-7.03.08-10.54-.03-3.25-.11-5.79,0-5.74,4.51.05,4.79,3.11,4.16,6.06,4.17,3.24,0,6.49.09,9.73-.03,2.66-.09,3.9.81,3.95,3.68.05,2.89-1.12,3.78-3.84,3.66-3.51-.15-7.04.14-10.54-.08-3.62-.23-5.38.66-5.41,4.82-.03,4.08,1.53,5.16,5.25,4.91,3.5-.24,7.03,0,10.54-.06,2.61-.04,4.76,0,4.76,3.68,0,3.35-1.51,4.12-4.44,4.07-6.76-.11-13.52-.22-20.27.04-3.88.14-4.42-1.77-4.32-4.93.15-5.13.04-10.27.04-15.4h.47Z"/>
  <path class="cls-1" d="M900.27,635.85c-9.4-.12-17.24-5.55-19.92-13.79-2.93-9.01.02-18.63,7.32-23.89,7.35-5.28,18.32-5.46,24.99-.1,1.98,1.59,5.86,3.45,3.4,6.55-1.8,2.26-4.83,3.08-8.35.13-5.74-4.8-12.13-3.72-16.46,1.45-4.15,4.96-4.04,13.06.25,17.92,4.36,4.94,11.02,5.84,16.51.95,3.67-3.27,6.26-1.5,8.19.57,2.37,2.53-1.16,4.06-2.61,5.49-3.64,3.58-8.24,4.97-13.34,4.72h.02Z"/>
  <path class="cls-1" d="M1312.99,635.86c-9.71-.04-17.81-5.75-20.32-14.32-2.65-9.06.59-18.73,7.95-23.7,7.51-5.07,18.57-4.94,24.97.57,1.78,1.53,5.55,3.22,3.15,6.08-1.8,2.14-4.8,3.61-8.32.36-5.44-5.02-11.48-4.06-16.48,1.23-4.51,4.77-4.38,12.83-.12,17.85,4.44,5.23,10.75,6,17.09.8,3.55-2.91,5.82-.92,7.6.75,2.83,2.64-.9,4.11-2.27,5.5-3.57,3.64-8.18,5.07-13.27,4.89h.02Z"/>
  <path class="cls-1" d="M1043.22,619.13c0-2.96-.26-5.95.05-8.88.59-5.49-.52-8.99-7.18-7.92-2.49.4-4.72.11-4.81-3.57-.08-3.53,1.7-3.92,4.47-3.89,7.81.08,15.62.07,23.43,0,2.64-.02,4.65.01,4.62,3.7-.03,3.49-1.77,4.25-4.5,3.77-6.42-1.13-7.73,1.88-7.33,7.65.48,6.97-.03,14,.17,20.99.1,3.59-1.31,4.61-4.73,4.56-3.19-.05-4.31-1.26-4.22-4.31.12-4.04.03-8.08.02-12.12v.02Z"/>
  <path class="cls-1" d="M1557.13,118.13c0,50.37.12,100.75-.31,151.12-.03,3.59,4.07,7.08.37,10.66-5.96-.36-2.9-5-2.92-7.32-.24-39.05-.17-78.1-.17-117.14,0-10.5-.12-21.01.1-31.51.04-2.09-2.01-5.91,2.92-5.81h.01Z"/>
  <path class="cls-1" d="M922.9,614.72c0-4.59.07-9.19-.02-13.78-.07-3.42-.33-6.32,4.8-6.2,4.78.11,4.24,2.88,4.22,5.88-.03,6.76.28,13.53-.11,20.26-.29,5.04.88,7.67,6.52,6.79,2.37-.37,4.86.02,7.29-.08,2.58-.11,3.18,1.29,3.12,3.52-.06,2.26.01,4.4-3.22,4.37-6.49-.07-12.97-.02-19.46-.04-3.16-.01-3.14-2.28-3.14-4.52v-16.21h0Z"/>
  <path class="cls-1" d="M1534.28,614.86c0,5.38-.17,10.76.06,16.13.15,3.6-1.3,4.57-4.71,4.56-3.37-.01-4.08-1.57-4.06-4.44.06-10.75.13-21.51-.04-32.26-.05-3.39,1.48-4,4.36-3.99,2.8,0,4.6.37,4.45,3.88-.23,5.37-.06,10.75-.06,16.13h0Z"/>
  <path class="cls-1" d="M1735.68,279.91c-.02-53.93-.03-107.86-.05-161.79,4.05,1.04,2.31,4.37,2.32,6.65.16,49.55.21,99.1.14,148.64,0,2.22,1.88,5.66-2.41,6.5h0Z"/>
  <path class="cls-1" d="M919.15,153.74c-1.38-5.65,3.19-3.08,4.9-3.1,18.27-.2,36.55-.12,54.82-.12-.68,4.86-4.5,2.64-6.84,2.68-17.62.34-35.25.4-52.88.54h0Z"/>
  <path class="cls-1" d="M1518.23,231.93c-.04-37.93-.08-75.87-.12-113.8,2.88.43,2.08,2.75,2.08,4.41-.03,33.34-.09,66.69-.25,100.03-.02,3.16.31,6.51-1.7,9.36h-.01Z"/>
  <path class="cls-1" d="M1372.11,118.11c-.08,37-.15,74-.23,111-2.21-3.71-1.56-7.87-1.58-11.84-.11-30.99-.11-61.99-.02-92.98,0-2.08-1.43-4.93,1.82-6.19h.01Z"/>
  <path class="cls-1" d="M1693.8,176.87c.43-1.22.86-2.45,1.3-3.67.63.03,1.27.06,1.9.1v106.64c-3.12-2.19-1.63-5.45-1.64-8.17-.12-28.82-.04-57.64-.13-86.46,0-2.83,1.08-5.98-1.43-8.43h0Z"/>
  <path class="cls-1" d="M1503.71,351.66c-17.89.04-35.78.07-53.67.11.21-2.66,2.18-2.72,4.12-2.72,15.42-.01,30.84,0,46.26,0,1.84,0,3.16.54,3.3,2.62h-.01Z"/>
  <path class="cls-1" d="M1412.72,219.96c-3.52-1.22-1.59-4.17-1.6-6.13-.18-31.9-.15-63.8-.17-95.71,3.34,1.3,1.72,4.19,1.73,6.26.11,31.86.06,63.72.05,95.58h-.01Z"/>
  <path class="cls-1" d="M1008.32,180.99c.01,12.09.02,24.17.03,36.26-3.14-12.08-3.13-24.17-.03-36.26Z"/>
  <path class="cls-1" d="M1171.04,351.66c-11.7-.03-23.4-.06-35.1-.08,11.7-3.02,23.4-2.93,35.1.08Z"/>
  <path class="cls-1" d="M1346.56,253.13c-13.02-7.17-23.86-17.24-33.77-28.32-2.73-3.05-3.19-4.77.68-7.44,12.83-8.85,20.22-21.26,22.3-36.71,5.27-39.17-19.11-65.63-49.19-69.25-24.03.05-48.06.33-72.08,0-6.53-.09-8.16,1.98-8.14,8.28.23,53.44.14,106.88.15,160.32h0c7.56.13,15.11.36,22.67.38,11.78.03,17.67-5.83,17.67-17.59v-60.47c8.07,8.64,13.24,17.05,18.14,25.65,12.97,22.77,30.89,40.73,52.74,55.06,5.01,3.29,8.08,2.97,12.01-1.58,5.46-6.32,11.47-12.25,17.75-17.77,5.03-4.43,5.9-6.8-.93-10.56h0ZM1290.94,182.04c-1.18,1.88-2.38,5.15-5.06,1.37-8.83-12.43-18.94-23.66-30.88-33.66,8.33-.44,16.35-1.81,24.21.76,13.05,4.26,18.94,20.01,11.72,31.52h.01Z"/>
  <path class="cls-1" d="M1894.89,447.9c-.5,5.47-2.75,10.16-6.4,14.22-3.16,1.99-6.55,2.02-10.16,1.55-10.22-1.32-20.24-3.26-30.02-6.66-9.21-3.21-18.7-5.39-28.55-5.58-2.72-.05-5.43-.21-7.65-2.1-5.48-16.24-3.3-31.44,6.18-45.65,9.49.19,18.97.96,27.81,4.53,13.69,5.52,27.85,8.5,42.5,9.52,2.61.18,5.55.02,6.88,3.16.55,9.03,1.92,18.06-.6,27.01h.01Z"/>
  <path class="cls-1" d="M1853.89,349.04c-50.07-.2-87.24,35.13-87.42,83.11-.19,49.49,35.75,84.83,86.41,85.13,49.81.3,87.71-34.85,87.42-83.43h0c.18-49.11-36-84.61-86.41-84.81ZM1846.31,479.44c-17.4-2.55-29.37-12.61-34.2-30.11h0s0,0,0,0c12.77-.96,25.15,1.12,37.08,5.44,12.74,4.61,25.91,6.46,39.3,7.36-10.09,15.43-25.2,19.79-42.18,17.31ZM1894.57,419.53h-.01c-15.53.85-30.42-1.97-44.84-7.7-7.26-2.88-14.73-4.87-22.62-5.3-3.04-.17-6.56.19-8.8-2.86,10.9-14.18,25.43-19.2,42.78-16.55,17.46,2.67,28.26,13.21,33.95,29.52.53,1.07.76,2.1-.46,2.89Z"/>
  <path class="cls-1" d="M1008.31,425.05c-.6,5.4,1.42,11.03-1.38,16.25,1.06-.2-.99.34-.61-.62.17-.42-.46-.78-.46-.44-.02,3.04.75,6.12-.6,9.07-.53,5.48-3.25,9.96-6.5,14.2-9.56,1.57-18.88-.57-27.81-3.13-14.5-4.16-28.76-9-44.04-9.27-1.65-.03-3.1-.83-4.36-1.9-4.6-16.09-3.13-31.33,6.34-45.46,10.31.09,20.49,1.35,30.07,5.2,14.44,5.8,29.56,8.02,44.85,9.52,3.01,1.39,2.96,3.8,2.29,6.54-.25,1.02.11,1.55.03.48-.04-.47.45-.9.87-1.25.69-.12,1.11.17,1.32.81h-.01Z"/>
  <path class="cls-1" d="M961.36,480.23c4.12-.18,8.24-.35,12.35-.53-3.61,3.99-8.29.87-12.36,1.86-.53-.3-.7-.59-.52-.89.17-.3.35-.44.53-.44h0Z"/>
  <path class="cls-1" d="M961.36,480.23v1.33c-2.01-.64-4.84,1.58-6.07-1.74,2.03.14,4.05.27,6.08.41h-.01Z"/>
  <path class="cls-1" d="M1295.07,351.56c-2.77-.3-5.3.59-7.89,1.39-36.94,11.43-58.36,44.9-54.78,87.77,5.27,63.28,70.9,88.63,119.63,63.66,4.08-2.09,4.48-3.62,1.09-6.83-6.86-6.49-13.56-13.17-20.02-20.05-2.92-3.11-5.48-3.69-9.79-2.72-21.91,4.95-39.54-3.92-48.28-23.66,2.53-2.41,5.65-1.15,8.45-1.16,33.11-.1,66.21-.04,99.32-.11,2.9,0,8.7-.79,8.7-.79,0,0,1.56-5.69,1.72-8.65,1.03-18.27-1.44-35.43-11.04-51.83-11.93-20.38-28.85-32.41-51.62-36.99M1348.86,411.94s-3.96-.05-6-.04c-22.3.06-44.6.04-67.96.04,14.16-32.2,57.05-31.63,71.62-7.32,1.19,1.98,2.33,7.32,2.33,7.32h.01Z"/>
  <path class="cls-1" d="M1138.21,126.27c-3.17-1.87-5.8-1.8-9.04-.18-8.93,4.47-18.12,8.42-27.01,12.97-5.19,2.65-6.52,1.29-6.12-4.13.36-4.84-.17-9.74.14-14.58.27-4.25-1.2-5.71-5.5-5.51-8.14.38-16.16,1.42-24,3.5-30.8,8.19-55.46,34.74-58.36,62.66-1.08,12.09-1.12,24.17.03,36.26,1.21,11.88,6.13,22.37,13.2,31.67,21.16,27.85,50.1,36.7,83.79,33.25,35.58-3.65,64.79-29.18,71.69-62.99,7.81-38.33-5.78-73.45-38.81-92.91h-.01ZM1136.07,206.76c-5.48,35.51-40.11,49.55-69.81,31.06-9.55-5.94-13.66-16.86-17-27.48-1.75-7.36-1.55-14.73-.13-22.11,4.74-16.47,13.38-29.51,30.93-34.37,32.94-9.12,61.4,17.97,56.01,52.9h0Z"/>
  <path class="cls-1" d="M1049.13,188.22c.04,7.37.09,14.75.13,22.12-3.85-7.24-1.37-14.89-1.41-22.38,0-.07.44-.24.63-.19.24.06.44.29.65.45h0Z"/>
  <path class="cls-1" d="M1662.2,594.03c-12.1.11-20.94,8.97-20.94,20.99s8.66,20.76,20.9,20.84c12.22.08,21.28-8.52,21.51-20.4.23-12.1-9.23-21.55-21.47-21.44h0ZM1661.95,628.22c-7.01-.2-12.23-6.12-11.99-13.59.25-7.57,5.74-13.11,12.76-12.87,7.05.24,12.01,5.95,11.85,13.65-.16,7.78-5.32,13.02-12.62,12.81Z"/>
  <path class="cls-1" d="M1446.03,594.02c-11.86-.15-21.28,8.86-21.56,20.6-.29,11.8,8.67,20.97,20.73,21.22,12.64.27,21.88-8.51,21.91-20.79.03-11.79-9.09-20.89-21.08-21.04h0ZM1446.13,628.2c-7.24.19-12.4-5.12-12.51-12.88-.11-7.78,4.82-13.41,11.89-13.58,7.08-.17,12.43,5.34,12.59,12.95.16,7.68-4.83,13.31-11.97,13.5h0Z"/>
  <path class="cls-1" d="M1196.65,611.48c-1.99-12.85-12.87-19.04-32.87-16.23-9.54,1.34-1.95,10.63-4.24,15.8-.5,1.13-.07,2.67-.07,4.02,0,5.4.03,10.8-.01,16.19-.02,2.37.23,4.33,3.36,4.19,6.45-.3,12.94.69,19.33-1.07,10.43-2.88,16.21-11.9,14.51-22.89h-.01ZM1173.44,627.67c-4.14.87-5.89-1.05-5.45-5.69.31-3.19-.48-6.55.21-9.61.75-3.37-3.28-8.51,3.15-9.97,6.92-1.57,13.65,1.84,15.88,7.83,3.52,9.5-2.59,17.51-13.78,17.44h-.01Z"/>
  <path class="cls-1" d="M1354.97,594.01c-11.81-.1-21.28,8.99-21.53,20.67-.25,11.8,8.72,20.93,20.8,21.17,12.36.25,21.34-8.03,21.75-20.04.42-12.25-8.69-21.7-21.02-21.8ZM1354.64,628.21c-7.23-.09-12.08-5.5-11.98-13.38.1-7.76,5.26-13.24,12.35-13.09,7.05.14,12.21,5.87,12.13,13.47-.08,7.62-5.33,13.09-12.5,13h0Z"/>
  <path class="cls-1" d="M1636.45,611.67c-1.84-11.46-9.86-16.73-25.5-16.75-1.35,0-2.74.2-4.04-.03-6.53-1.2-8.34,1.69-7.74,7.85.52,5.35.11,10.78.11,16.18,0,18.04,1.81,19.49,20.06,16.06,12.03-2.26,18.98-11.71,17.11-23.3h0ZM1622.46,625.55c-4,2.86-9.49,3.65-12.99,1.48-4.07-2.52-.84-8.37-1.71-12.02,0-.91-.08-1.21.01-1.44,1.37-3.68-3.52-9.92,3.67-11.03,6.3-.97,12.69.16,15.35,7.28,2.26,6.06,1.28,11.73-4.33,15.74h0Z"/>
  <path class="cls-1" d="M1828,616.02c3.94-2.49,4.18-7.84,2.52-12.59-1.8-5.11-5.43-8.04-10.76-8.34-5.64-.32-11.31-.02-16.96-.23-3.11-.12-4.23.92-4.19,4.11.15,10.77.12,21.54.02,32.31-.03,3.04.97,4.28,4.18,4.24,2.96-.04,4.61-.68,4.35-4-.17-2.14-.14-4.31.01-6.46.1-1.43-.83-3.51,1.43-3.99,2.06-.44,4.4-.85,5.85,1.39,1.31,2.03,2.76,4.06,3.56,6.31,2.07,5.8,5.84,8.02,12.3,6.14-.11-3.13-2.01-5.21-3.45-7.4-2.77-4.22-5.13-7.53,1.15-11.5h-.01ZM1811.99,613.23c-4.24,1-4.89-1.51-5.04-5.8-.18-5.17,2.31-5.63,6.32-5.36,4.09.28,8.87-.01,8.9,5.57.03,6.37-5.29,5.41-10.18,5.59h0Z"/>
  <path class="cls-1" d="M1134.46,615.95c7.42-6.18,2.9-19.16-6.71-20.58-6.35-.94-12.93-.35-19.41-.44-1.76-.02-3.22.34-3.22,2.57,0,11.61-.02,23.22,0,34.83,0,3.09,2.16,3.13,4.47,3.14,2.4,0,4.31-.28,4.21-3.37-.08-2.43-.07-4.86.03-7.29.06-1.47-.62-3.5,1.74-3.81,1.8-.24,3.88-.76,5.14,1.22,1.44,2.27,3.06,4.51,4,7,2.23,5.88,6.1,7.63,12.49,5.4-1.28-2.45-2.29-4.92-3.77-7.08-2.89-4.23-4.52-6.99,1.01-11.6h.02ZM1118.88,613.21c-3.78.83-5.29-.79-5.27-5.5.01-4.67,1.57-6.08,5.99-5.65,4.26.41,9.36-.18,9.05,6.09-.28,5.72-5.16,4.92-9.77,5.06Z"/>
  <path class="cls-1" d="M1565.78,598.39c-1.07-2.91-2.7-3.8-5.4-3.45-2.73.36-6.33-1.5-7.84,2.35-4.87,12.44-9.59,24.94-14.48,37.72,5.23.59,9.24,1.7,11.2-4.4,1.25-3.89,17.84-4.07,19.2-.2,2.01,5.72,5.7,5.52,11.39,4.52-4.82-12.43-9.62-24.42-14.08-36.54h.01ZM1552.77,620.47c1.09-5.76,3.27-11.01,6.38-17.46,1.18,2.95,1.92,4.67,2.56,6.42,2.96,8.05-.02,11.72-8.94,11.03h0Z"/>
  <path class="cls-1" d="M1225.34,598.94c-1.28-3.51-3.37-4.27-6.69-4.08-3.24.19-6.07-.3-7.58,4.03-3.72,10.67-8.01,21.15-12.25,31.63-1.65,4.07-.42,5.07,3.69,5.03,3.41-.03,4.4-1.77,5.72-4.42,2.14-4.29,17.91-4.86,19.55-.53,2.16,5.69,5.9,5.18,11.26,4.31-4.75-12.38-9.39-24.12-13.7-35.99v.02ZM1211.85,620.59c1.51-6.01,3.44-11.43,6.68-17.6,2.29,6.38,4.2,11.71,6.31,17.6h-12.99Z"/>
  <path class="cls-1" d="M1793.09,630c-3.89-10.32-8.14-20.52-11.75-30.94-1.45-4.18-4.1-4.15-7.48-4.22-3.21-.06-5.49.32-6.8,3.93-4.32,11.85-8.99,23.58-14.06,36.74,4.24-.78,7.74,1.74,10.41-2.47,4.66-7.35,16.65-7.31,21.49.11,2.23,3.42,5.39,2.66,7.88,2.03,3.35-.85.97-3.47.32-5.19h0ZM1767.65,620.25c1.99-5.56,3.91-10.96,5.87-16.43,2.63,1.57,2.74,4.2,3.57,6.38,2.93,7.71-.21,11.05-9.44,10.04h0Z"/>
</svg>