<svg width="1240" height="647" viewBox="0 0 1240 647" fill="none" xmlns="http://www.w3.org/2000/svg">
<rect width="1240" height="647" fill="#FEF7E9"/>
<circle cx="928" cy="416" r="44.5" stroke="black" stroke-width="39"/>
<circle cx="1017" cy="416" r="44.5" stroke="black" stroke-width="39"/>
<circle cx="679" cy="416" r="44.5" stroke="black" stroke-width="39"/>
<mask id="path-5-inside-1_2_179" fill="white">
<path d="M330.594 369.896L169 243.948L330.594 118L492.188 243.948L330.594 369.896Z"/>
</mask>
<path d="M330.594 369.896L299.834 393.871L330.594 417.846L361.354 393.871L330.594 369.896ZM330.594 369.896L361.354 345.921L199.76 219.973L169 243.948L138.24 267.923L299.834 393.871L330.594 369.896ZM492.188 243.948L461.427 219.973L299.834 345.921L330.594 369.896L361.354 393.871L522.948 267.923L492.188 243.948Z" fill="black" mask="url(#path-5-inside-1_2_179)"/>
<rect x="728.144" y="371.567" width="62.4295" height="62.4295" transform="rotate(45 728.144 371.567)" fill="#FEF7E9"/>
<rect x="934.928" y="424.217" width="72.0229" height="72.0229" transform="rotate(45 934.928 424.217)" fill="#FEF7E9"/>
<rect x="1014.07" y="420" width="72.2269" height="72.2269" transform="rotate(45 1014.07 420)" fill="#FEF7E9"/>
<mask id="path-10-inside-2_2_179" fill="white">
<path d="M161 210H501V475H161V210Z"/>
</mask>
<path d="M161 210V171H122V210H161ZM501 210H540V171H501V210ZM161 210V249H501V210V171H161V210ZM501 210H462V475H501H540V210H501ZM161 475H200V210H161H122V475H161Z" fill="black" mask="url(#path-10-inside-2_2_179)"/>
<rect x="542" y="436.083" width="39" height="39" fill="black"/>
<rect x="542" y="210.083" width="39" height="206" fill="black"/>
<circle cx="791" cy="416" r="44.5" stroke="black" stroke-width="39"/>
<path d="M620 244V210.37H625.13V244H620ZM626.84 244V210.37H628.55V244H626.84ZM630.26 244V210.37H631.97V244H630.26ZM637.1 244V210.37H638.81V244H637.1ZM640.52 244V210.37H645.65V244H640.52ZM635.789 258.307H631.514L630.203 262.183H628.721L633.566 248.731H633.737L638.639 262.183H637.1L635.789 258.307ZM635.39 257.167L633.68 252.151L631.913 257.167H635.39ZM647.387 244V210.37H649.097V244H647.387ZM650.807 244V210.37H655.937V244H650.807ZM657.647 244V210.37H659.357V244H657.647ZM664.487 244V210.37H669.617V244H664.487ZM671.327 244V210.37H673.037V244H671.327ZM657.476 260.929H660.098V250.213H657.647V248.959H664.202V250.213H661.58V260.929H664.316V262.183H657.476V260.929ZM620 301V267.37H625.13V301H620ZM626.84 301V267.37H628.55V301H626.84ZM630.26 301V267.37H635.39V301H630.26ZM640.52 301V267.37H642.23V301H640.52ZM643.94 301V267.37H645.65V301H643.94ZM629.633 305.959H637.727V307.27H631.001V311.602H636.587V312.97H631.001V317.872H637.67V319.183H629.633V305.959ZM647.387 301V267.37H649.097V301H647.387ZM650.807 301V267.37H652.517V301H650.807ZM654.227 301V267.37H659.357V301H654.227ZM661.067 301V267.37H662.777V301H661.067ZM667.907 301V267.37H673.037V301H667.907ZM656.849 305.959H658.274L663.803 315.763V305.959H665.456V306.13C665.342 306.206 665.285 306.301 665.285 306.415C665.247 306.491 665.228 306.662 665.228 306.928V319.183H664.088L658.217 308.809V319.183H656.849V305.959ZM674.773 301V267.37H676.483V301H674.773ZM678.193 301V267.37H679.903V301H678.193ZM681.613 301V267.37H683.323V301H681.613ZM688.453 301V267.37H693.583V301H688.453ZM695.293 301V267.37H700.423V301H695.293ZM689.023 319.411C687.959 319.411 687.047 319.126 686.287 318.556C685.527 318.024 684.938 317.245 684.52 316.219C684.102 315.231 683.893 314.072 683.893 312.742C683.893 310.994 684.159 309.607 684.691 308.581C685.223 307.555 685.869 306.833 686.629 306.415C687.389 306.035 688.149 305.845 688.909 305.845C689.707 305.845 690.467 306.054 691.189 306.472C691.949 306.852 692.5 307.384 692.842 308.068L691.816 308.866L691.645 309.037L691.588 308.923C691.588 308.809 691.569 308.695 691.531 308.581C691.455 308.505 691.341 308.372 691.189 308.182C690.847 307.802 690.505 307.536 690.163 307.384C689.821 307.232 689.403 307.156 688.909 307.156C687.883 307.156 687.028 307.555 686.344 308.353C685.698 309.189 685.375 310.538 685.375 312.4C685.375 314.224 685.698 315.63 686.344 316.618C686.99 317.606 687.883 318.1 689.023 318.1C689.441 318.1 689.878 318.024 690.334 317.872C690.828 317.758 691.227 317.568 691.531 317.302V314.167H689.137V312.856H692.899V318.043C691.645 318.955 690.353 319.411 689.023 319.411ZM702.16 301V267.37H707.29V301H702.16ZM709 301V267.37H710.71V301H709ZM712.42 301V267.37H714.13V301H712.42ZM719.26 301V267.37H720.97V301H719.26ZM722.68 301V267.37H727.81V301H722.68ZM717.949 315.307H713.674L712.363 319.183H710.881L715.726 305.731H715.897L720.799 319.183H719.26L717.949 315.307ZM717.55 314.167L715.84 309.151L714.073 314.167H717.55ZM729.547 301V267.37H731.257V301H729.547ZM732.967 301V267.37H734.677V301H732.967ZM736.387 301V267.37H738.097V301H736.387ZM743.227 301V267.37H748.357V301H743.227ZM750.067 301V267.37H755.197V301H750.067ZM743.797 319.411C742.733 319.411 741.821 319.126 741.061 318.556C740.301 318.024 739.712 317.245 739.294 316.219C738.876 315.231 738.667 314.072 738.667 312.742C738.667 310.994 738.933 309.607 739.465 308.581C739.997 307.555 740.643 306.833 741.403 306.415C742.163 306.035 742.923 305.845 743.683 305.845C744.481 305.845 745.241 306.054 745.963 306.472C746.723 306.852 747.274 307.384 747.616 308.068L746.59 308.866L746.419 309.037L746.362 308.923C746.362 308.809 746.343 308.695 746.305 308.581C746.229 308.505 746.115 308.372 745.963 308.182C745.621 307.802 745.279 307.536 744.937 307.384C744.595 307.232 744.177 307.156 743.683 307.156C742.657 307.156 741.802 307.555 741.118 308.353C740.472 309.189 740.149 310.538 740.149 312.4C740.149 314.224 740.472 315.63 741.118 316.618C741.764 317.606 742.657 318.1 743.797 318.1C744.215 318.1 744.652 318.024 745.108 317.872C745.602 317.758 746.001 317.568 746.305 317.302V314.167H743.911V312.856H747.673V318.043C746.419 318.955 745.127 319.411 743.797 319.411ZM756.934 301V267.37H762.064V301H756.934ZM763.774 301V267.37H765.484V301H763.774ZM767.194 301V267.37H772.324V301H767.194ZM777.454 301V267.37H779.164V301H777.454ZM780.874 301V267.37H782.584V301H780.874ZM766.567 305.959H774.661V307.27H767.935V311.602H773.521V312.97H767.935V317.872H774.604V319.183H766.567V305.959ZM784.32 301V267.37H789.45V301H784.32ZM791.16 301V267.37H796.29V301H791.16ZM798 301V267.37H799.71V301H798ZM801.42 301V267.37H803.13V301H801.42ZM808.26 301V267.37H809.97V301H808.26ZM793.554 305.959H794.751L798 312.457L801.306 305.959H802.446V319.183H801.021V309.208L798.171 314.566H797.601L794.922 309.265V319.183H793.554V305.959ZM811.707 301V267.37H816.837V301H811.707ZM818.547 301V267.37H820.257V301H818.547ZM821.967 301V267.37H827.097V301H821.967ZM832.227 301V267.37H833.937V301H832.227ZM835.647 301V267.37H837.357V301H835.647ZM821.34 305.959H829.434V307.27H822.708V311.602H828.294V312.97H822.708V317.872H829.377V319.183H821.34V305.959ZM839.094 301V267.37H840.804V301H839.094ZM842.514 301V267.37H844.224V301H842.514ZM845.934 301V267.37H851.064V301H845.934ZM852.774 301V267.37H854.484V301H852.774ZM859.614 301V267.37H864.744V301H859.614ZM848.556 305.959H849.981L855.51 315.763V305.959H857.163V306.13C857.049 306.206 856.992 306.301 856.992 306.415C856.954 306.491 856.935 306.662 856.935 306.928V319.183H855.795L849.924 308.809V319.183H848.556V305.959ZM866.48 301V267.37H868.19V301H866.48ZM869.9 301V267.37H871.61V301H869.9ZM873.32 301V267.37H878.45V301H873.32ZM880.16 301V267.37H885.29V301H880.16ZM890.42 301V267.37H892.13V301H890.42ZM879.248 307.27H875.543V305.959H884.663V307.27H880.787V319.183H879.248V307.27Z" fill="black"/>
</svg>
