<svg width="590" height="590" viewBox="0 0 590 590" fill="none" xmlns="http://www.w3.org/2000/svg">
<rect width="590" height="590" fill="#FEF7E9"/>
<mask id="path-2-inside-1_4_38" fill="white">
<path d="M263.994 353.074L87.0002 199.537L255.924 53.0001L432.918 206.537L263.994 353.074Z"/>
</mask>
<path d="M263.994 353.074L234.534 378.63L263.994 404.185L293.454 378.63L263.994 353.074ZM263.994 353.074L293.454 327.518L116.46 173.981L87.0002 199.537L57.54 225.093L234.534 378.63L263.994 353.074ZM432.918 206.537L403.458 180.981L234.534 327.518L263.994 353.074L293.454 378.63L462.378 232.093L432.918 206.537Z" fill="black" mask="url(#path-2-inside-1_4_38)"/>
<mask id="path-4-inside-2_4_38" fill="white">
<path d="M87 166.537H432.918V431.537H87V166.537Z"/>
</mask>
<path d="M87 166.537V127.537H48V166.537H87ZM432.918 166.537H471.918V127.537H432.918V166.537ZM87 166.537V205.537H432.918V166.537V127.537H87V166.537ZM432.918 166.537H393.918V431.537H432.918H471.918V166.537H432.918ZM87 431.537H126V166.537H87H48V431.537H87Z" fill="black" mask="url(#path-4-inside-2_4_38)"/>
<rect x="467.959" y="392.537" width="35.041" height="39" fill="black"/>
<rect x="467.959" y="166.537" width="35.041" height="206" fill="black"/>
</svg>
